<?xml version="1.0" standalone="no"?>
<!DOCTYPE svg PUBLIC "-//W3C//DTD SVG 1.1//EN" "http://www.w3.org/Graphics/SVG/1.1/DTD/svg11.dtd" >
<svg xmlns="http://www.w3.org/2000/svg">
<metadata></metadata>
<defs>
<font id="canallightitaliqueitalic" horiz-adv-x="0" >
<font-face units-per-em="2048" ascent="1638" descent="-410" />
<missing-glyph horiz-adv-x="575" />
<glyph horiz-adv-x="2048" />
<glyph horiz-adv-x="2048" />
<glyph horiz-adv-x="682" />
<glyph unicode="&#xd;" />
<glyph unicode=" "  horiz-adv-x="575" />
<glyph unicode="&#x09;" horiz-adv-x="575" />
<glyph unicode="&#xa0;" horiz-adv-x="575" />
<glyph unicode="!" horiz-adv-x="536" d="M156 90q0 48 32.5 81.5t79.5 33.5t81 -33.5t34 -79.5q0 -47 -34 -81t-81 -34q-46 0 -79 33.5t-33 79.5zM184 506v1030h168v-1030h-168z" />
<glyph unicode="&#x22;" horiz-adv-x="688" d="M100 1536h150l-25 -532h-108zM436 1536h152l-27 -532h-108z" />
<glyph unicode="#" horiz-adv-x="1226" d="M29 487v138h262l41 323h-246v137h262l58 463l143 -20l-53 -443h321l60 463l143 -20l-55 -443h237v-137h-252l-41 -323h238v-138h-254l-62 -493l-143 20l57 473h-325l-62 -493l-143 20l59 473h-245zM438 625h324l39 323h-324z" />
<glyph unicode="$" horiz-adv-x="1216" d="M109 373l163 45q35 -100 69 -147.5t97 -82.5q74 -41 164 -41q126 0 206.5 80t80.5 205q0 106 -71 176.5t-251 145.5q-209 86 -295 179t-86 232q0 137 86 240q42 47 105 86q61 34 172 57v92h180v-102q90 -22 139 -59q41 -31 69 -64t71 -102l-136 -86q-36 55 -56.5 79 t-49.5 44q-59 43 -156 43q-112 0 -182 -64.5t-70 -167.5q0 -78 64 -136.5t225 -125.5q227 -95 320.5 -199.5t93.5 -261.5q0 -133 -49 -233q-39 -79 -105 -133q-34 -28 -70 -44.5t-108 -37.5v-109h-180v101q-78 8 -119.5 18t-81.5 33q-81 44 -139 117q-35 44 -55 89t-45 134z " />
<glyph unicode="%" horiz-adv-x="1691" d="M70 1217q0 164 105.5 274.5t262.5 110.5q160 0 266.5 -109.5t106.5 -275.5q0 -164 -106.5 -275t-264.5 -111t-264 111t-106 275zM225 1217q0 -103 60.5 -170.5t154.5 -67.5q93 0 153 67.5t60 172.5q0 103 -59.5 170t-151.5 67q-95 0 -156 -66.5t-61 -172.5zM324 41 l897 1542l149 -88l-889 -1542zM881 317q-1 164 105 276t263 112q159 0 265 -111t108 -277q0 -163 -107 -274t-264 -111q-158 0 -264 110.5t-106 274.5zM1036 319q0 -104 60.5 -170.5t154.5 -66.5t153.5 66.5t59.5 170.5q0 103 -59.5 170.5t-151.5 67.5q-95 0 -156 -67 t-61 -171z" />
<glyph unicode="&#x26;" horiz-adv-x="1456" d="M123 395q0 117 49.5 205t167.5 182q61 49 178 125q-84 109 -117 176q-34 67 -34 154q0 138 95.5 231t237.5 93q138 0 233 -92t95 -224q0 -60 -13.5 -97t-53.5 -87t-81.5 -87.5t-121.5 -99.5l321 -411l43 41l148 137l106 -125q-106 -96 -196 -182l260 -334h-211l-170 217 q-70 -67 -113.5 -100t-109.5 -70q-75 -41 -136.5 -58.5t-134.5 -17.5q-188 0 -315 122t-127 302zM293 414q0 -123 78 -205t198 -82q83 0 181 55q80 45 208 158l-342 442l-16 -12l-63 -43q-137 -93 -193 -162q-51 -63 -51 -151zM526 1239q0 -50 17 -74l104 -149l2 -6l6 -2 l4 -9q128 94 167.5 140.5t39.5 103.5q0 73 -48 121.5t-122 48.5q-72 0 -121 -50t-49 -124z" />
<glyph unicode="'" horiz-adv-x="397" d="M100 1006l50 530h147l-88 -530h-109z" />
<glyph unicode="(" horiz-adv-x="573" d="M102 776q0 336 66 660q25 130 61 235q18 59 62 158l160 -66q-56 -152 -81 -235.5t-46 -200.5q-48 -269 -48 -547q0 -294 48 -547q22 -116 46.5 -201t80.5 -235l-160 -67q-5 12 -12.5 28.5t-11.5 27t-7 17.5q-36 91 -55 162q-48 175 -75.5 389.5t-27.5 421.5z" />
<glyph unicode=")" horiz-adv-x="571" d="M123 -203q55 151 79.5 236t45.5 200q47 248 47 547t-47 547q-21 116 -45.5 199.5t-79.5 236.5l158 66q19 -46 30 -74q29 -61 56 -162q49 -171 75.5 -385.5t26.5 -427.5q0 -330 -66 -657q-30 -152 -59 -236q-27 -75 -63 -157z" />
<glyph unicode="*" horiz-adv-x="2451" d="M539 199l571 569l-567 567l116 117l566 -567l567 567l117 -117l-568 -567l570 -569l-115 -115l-571 569l-570 -569z" />
<glyph unicode="+" horiz-adv-x="2318" d="M379 739v123q0 19 20 19h658q20 0 20 20v639q0 19 25 19h119q22 0 22 -19v-633q0 -16 5.5 -21t23.5 -5h647q20 0 20 -19v-129q0 -16 -18 -16h-657q-21 0 -21 -19v-680q0 -18 -16 -18h-133q-6 0 -11.5 5.5t-5.5 12.5v678q0 12 -4 16.5t-16 4.5h-662q-9 0 -12.5 4.5 t-3.5 17.5z" />
<glyph unicode="," horiz-adv-x="286" d="M0 -350l39 573h186l-100 -573h-125z" />
<glyph unicode="-" horiz-adv-x="370" d="M0 367v125h371v-125h-371z" />
<glyph unicode="." horiz-adv-x="438" d="M111 92q0 46 31 77.5t75 31.5q45 0 78 -32t33 -75q0 -47 -32.5 -79.5t-78.5 -32.5q-44 0 -75 32t-31 78z" />
<glyph unicode="/" horiz-adv-x="1236" d="M88 -209l977 1978h152l-967 -1978h-162z" />
<glyph unicode="0" horiz-adv-x="1419" d="M160 756q0 227 71.5 411t198.5 288t283 104q152 0 277.5 -103t197.5 -284t72 -402q0 -222 -72 -404.5t-198.5 -286.5t-280.5 -104q-150 0 -276.5 103.5t-199.5 283.5t-73 394zM328 772q0 -182 49.5 -328t137 -228.5t196.5 -82.5q104 0 191 84.5t137.5 230.5t50.5 320 q0 178 -49.5 323.5t-137 228.5t-194.5 83q-106 0 -193.5 -83.5t-137.5 -228.5t-50 -319z" />
<glyph unicode="1" horiz-adv-x="688" d="M123 1376v160h336v-1536h-172v1376h-164z" />
<glyph unicode="2" horiz-adv-x="1284" d="M129 0l559 647q106 121 176 223q90 129 90 238q0 123 -89 209t-218 86q-79 0 -148 -36.5t-108 -96.5q-25 -36 -35 -73t-16 -110h-172q10 112 33 175q47 135 168.5 216t275.5 81q201 0 339 -131.5t138 -323.5q0 -164 -121 -330q-82 -112 -208 -256l-316 -358h645v-160 h-993z" />
<glyph unicode="3" horiz-adv-x="1222" d="M129 397h166q9 -59 19.5 -89t33.5 -60q38 -51 106 -83t138 -32q127 0 214 89t87 218q0 87 -41.5 157t-110.5 101q-37 18 -70.5 24t-105.5 9v148q74 3 110 10.5t73 28.5q57 32 89.5 92.5t32.5 132.5q0 114 -74 187t-190 73q-67 0 -123 -26t-88 -72q-18 -27 -27 -55.5 t-22 -92.5h-168q13 86 27 128.5t45 94.5q52 86 144.5 132.5t211.5 46.5q187 0 309.5 -116.5t122.5 -295.5q0 -231 -196 -340q104 -49 161.5 -147t57.5 -226q0 -198 -135 -328.5t-340 -130.5q-105 0 -198.5 40t-158.5 112q-48 56 -70.5 115.5t-29.5 154.5z" />
<glyph unicode="4" horiz-adv-x="1366" d="M113 258l952 1364v-1214h188v-150h-188v-258h-164v258h-788zM403 408h498v708z" />
<glyph unicode="5" horiz-adv-x="1355" d="M160 248l137 98q32 -51 51 -75t49 -48q107 -90 246 -90q161 0 271 112.5t110 276.5q0 163 -108.5 273t-268.5 110q-75 0 -141 -23t-156 -81l221 735h613v-160h-492l-100 -327q52 8 86 8q223 0 369.5 -151.5t146.5 -381.5q0 -155 -73 -281t-202 -197t-288 -71 q-302 0 -471 273z" />
<glyph unicode="6" horiz-adv-x="1380" d="M160 494q0 176 127 354l524 727l127 -96l-352 -492q80 21 141 21q134 0 247 -67.5t179 -184t66 -254.5q0 -143 -71 -264.5t-192.5 -192t-263.5 -70.5q-144 0 -266.5 70t-194 189.5t-71.5 259.5zM330 496q0 -151 105.5 -257t254.5 -106q148 0 254.5 105.5t106.5 253.5 q0 152 -105 258t-256 106q-149 0 -254.5 -105.5t-105.5 -254.5z" />
<glyph unicode="7" horiz-adv-x="1296" d="M133 53l871 1323h-838v160h1130l-1028 -1573z" />
<glyph unicode="8" horiz-adv-x="1251" d="M160 424q0 260 229 375q-91 55 -139.5 143t-48.5 195q0 180 123.5 301t306.5 121q185 0 307.5 -120.5t122.5 -301.5q0 -103 -52.5 -195t-140.5 -143q105 -51 164.5 -149t59.5 -222q0 -195 -131.5 -324t-329.5 -129q-201 0 -336 128.5t-135 320.5zM330 432 q0 -125 86.5 -212t210.5 -87q123 0 209 86.5t86 208.5t-86.5 208.5t-210.5 86.5q-120 0 -207.5 -86.5t-87.5 -204.5zM362 1139q0 -114 78 -192.5t191 -78.5q109 0 187.5 78.5t78.5 188.5q0 113 -77.5 190.5t-190.5 77.5q-109 0 -188 -78.5t-79 -185.5z" />
<glyph unicode="9" horiz-adv-x="1380" d="M160 1036q0 142 71 262.5t192.5 190.5t264.5 70q108 0 206.5 -41.5t170 -111t114 -165t42.5 -199.5q0 -174 -129 -354l-523 -725l-129 96l355 492q-80 -21 -142 -21q-135 0 -248.5 67t-179 183.5t-65.5 255.5zM330 1047q0 -152 104.5 -258.5t255.5 -106.5 q149 0 255 105.5t106 254.5q0 150 -105.5 255.5t-255.5 105.5q-148 0 -254 -105t-106 -251z" />
<glyph unicode=":" horiz-adv-x="595" d="M184 90q0 47 33.5 81t79.5 34q47 0 81 -34t34 -81q0 -46 -33.5 -79.5t-79.5 -33.5q-47 0 -81 33.5t-34 79.5zM184 864q0 47 34 81t81 34q46 0 79.5 -33.5t33.5 -79.5q0 -47 -33.5 -79.5t-79.5 -32.5q-47 0 -81 32t-34 78z" />
<glyph unicode=";" horiz-adv-x="626" d="M180 -350l39 573h187l-101 -573h-125zM254 864q0 47 34 81t81 34q46 0 79 -33.5t33 -79.5q0 -47 -33 -79.5t-79 -32.5q-47 0 -81 32t-34 78z" />
<glyph unicode="&#x3c;" horiz-adv-x="1667" d="M106 768l1399 -817v182l-1087 635l1087 635v182z" />
<glyph unicode="=" horiz-adv-x="2207" d="M496 553v164h1216v-164h-1216zM496 881v163h1216v-163h-1216z" />
<glyph unicode="&#x3e;" horiz-adv-x="1667" d="M358 -49v182l1088 635l-1088 635v182l1399 -817z" />
<glyph unicode="?" horiz-adv-x="927" d="M100 1204q0 152 104 251t265 99q157 0 262 -104t105 -260q0 -91 -39.5 -170t-106.5 -123q-31 -21 -112 -51q-7 0 -15 -4l-14 -4v-332h-166v448q75 3 115.5 16.5t89.5 53.5q4 3 8 5.5t6 4.5q66 60 66 154q0 92 -57 150.5t-148 58.5q-88 0 -145.5 -56.5t-57.5 -142.5 q0 -28 14 -94h-165q-9 53 -9 100zM354 92q0 47 33.5 80t79.5 33q49 0 82 -32.5t33 -80.5q0 -47 -33.5 -81t-79.5 -34q-47 0 -81 34t-34 81z" />
<glyph unicode="@" horiz-adv-x="1859" d="M164 477q0 166 62 313.5t168.5 253t255 167t315.5 61.5q206 0 373.5 -89.5t262.5 -246.5t95 -350q0 -147 -50.5 -274.5t-136 -203t-184.5 -75.5q-123 0 -166 135q-72 -78 -134 -108.5t-148 -30.5q-168 0 -278 118t-110 299q0 194 123.5 323.5t307.5 129.5 q89 0 151.5 -30.5t118.5 -100.5l14 111h150l-62 -523q-8 -78 -8 -104q0 -74 62 -74q53 0 102 56t78.5 147.5t29.5 191.5q0 246 -166 403t-427 157q-180 0 -329 -86t-235 -236t-86 -332q0 -181 85 -331.5t233 -237.5q146 -86 364 -86h28q89 0 128 1.5t96 13t108.5 35.5 t129.5 69l14 8l49 -137l-12 -4q-142 -70 -262.5 -98.5t-276.5 -28.5q-261 0 -448 108q-180 104 -282.5 287t-102.5 399zM664 440q0 -109 64 -185.5t155 -76.5q110 0 193 98.5t83 229.5v14q0 100 -64.5 165t-162.5 65q-114 0 -191 -89t-77 -221z" />
<glyph unicode="A" horiz-adv-x="1357" d="M-33 0l854 1630l473 -1630h-174l-119 428h-624l-225 -428h-185zM457 586h495l-174 628z" />
<glyph unicode="B" horiz-adv-x="1163" d="M113 0l188 1536h274q120 0 199 -20q110 -29 177 -128t67 -233q0 -242 -223 -356q70 -21 104.5 -38t67.5 -48q104 -96 104 -273q0 -181 -117 -307q-72 -75 -163 -104t-256 -29h-422zM301 158h244q113 0 170 14.5t98 54.5q40 38 63 98t23 124q0 66 -26 121.5t-72 86.5 q-45 31 -97 40.5t-165 9.5h-170zM387 856h119q118 0 168.5 15t95.5 63q82 88 82 219q0 120 -74 178q-34 27 -80.5 38t-128.5 11h-118z" />
<glyph unicode="C" horiz-adv-x="1425" d="M125 729q0 239 100.5 430.5t279.5 299.5t402 108q129 0 237.5 -33.5t225.5 -110.5q66 -43 66 -61q0 -2 -0.5 -5.5t-1.5 -10t-2 -13.5l-15 -108v-8q-3 -25 -12 -25q-4 0 -16 14q-72 87 -207.5 143t-274.5 56q-131 0 -244.5 -51t-193.5 -140.5t-126 -216t-46 -272.5 q0 -271 159.5 -432.5t426.5 -161.5q122 0 239 40t178 103q4 7 7 7q6 0 6 -11v-12l-21 -154q-2 -15 -8.5 -23.5t-26.5 -17.5q-183 -94 -397 -94q-215 0 -382.5 96t-260 269t-92.5 395z" />
<glyph unicode="D" horiz-adv-x="1409" d="M113 0l188 1536h307q161 0 261.5 -20.5t177.5 -67.5q139 -85 220 -254t81 -373q0 -259 -123.5 -467.5t-329.5 -294.5q-79 -34 -171 -46.5t-255 -12.5h-356zM301 158h193q160 0 255 21t166 73q119 88 190 244.5t71 332.5q0 131 -40.5 243.5t-115.5 184.5q-67 67 -158 94 t-244 27h-167z" />
<glyph unicode="E" horiz-adv-x="1054" d="M113 0l188 1536h754l-21 -156h-583l-58 -469h584l-19 -157h-583l-74 -596h584l-21 -158h-751z" />
<glyph unicode="F" horiz-adv-x="954" d="M113 0l188 1536h700l-18 -156h-532l-58 -467h533l-21 -157h-530l-94 -756h-168z" />
<glyph unicode="G" horiz-adv-x="1675" d="M125 723q0 179 60.5 335.5t166 267.5t254 175t318.5 64q263 0 458 -148q51 -40 89 -82.5t98 -126.5l-119 -104q-45 68 -73 102t-68 66q-166 131 -389 131q-179 0 -321 -86t-222 -240.5t-80 -349.5q0 -264 159 -430t410 -166q273 0 428 193q41 49 65 101t54 153h-455 l19 155h629q-21 -143 -44 -221.5t-65 -159.5q-97 -186 -261 -284.5t-376 -98.5q-210 0 -378 97t-262.5 269.5t-94.5 387.5z" />
<glyph unicode="H" horiz-adv-x="1433" d="M113 0l188 1536h170l-76 -614h744l75 614h168l-188 -1536h-170l94 766h-743l-94 -766h-168z" />
<glyph unicode="I" horiz-adv-x="522" d="M113 0l188 1536h170l-190 -1536h-168z" />
<glyph unicode="J" horiz-adv-x="815" d="M-14 131l104 121q47 -69 86.5 -95t93.5 -26q92 0 133 80q40 78 60 258l131 1067h168l-131 -1067q-21 -180 -47 -270q-32 -107 -113.5 -168.5t-191.5 -61.5q-176 0 -293 162z" />
<glyph unicode="K" horiz-adv-x="1273" d="M113 0l188 1536h170l-82 -668l686 668h221l-759 -723l655 -813h-215l-602 758l-94 -758h-168z" />
<glyph unicode="L" horiz-adv-x="829" d="M113 0l188 1536h170l-170 -1378h469l-20 -158h-637z" />
<glyph unicode="M" horiz-adv-x="2064" d="M43 0l639 1632l338 -1296l666 1306l219 -1642h-170l-148 1130l-618 -1200l-310 1194l-438 -1124h-178z" />
<glyph unicode="N" horiz-adv-x="1646" d="M113 0l196 1602l969 -1264l147 1198h170l-198 -1612l-969 1266l-147 -1190h-168z" />
<glyph unicode="O" horiz-adv-x="1763" d="M125 733q0 177 61.5 332t168.5 265t258.5 173.5t324.5 63.5q222 0 396 -94.5t271 -264.5t97 -385q0 -184 -60.5 -343t-167.5 -271t-258 -176t-327 -64q-220 0 -394.5 97.5t-272 272t-97.5 394.5zM297 739q0 -174 77 -313t213.5 -217t307.5 -78q134 0 251.5 52t202 141.5 t133 215.5t48.5 269v22q0 262 -162.5 418t-425.5 156q-183 0 -330.5 -86t-231 -238.5t-83.5 -341.5z" />
<glyph unicode="P" horiz-adv-x="1046" d="M113 0l188 1536h291q116 0 194 -22.5t136 -73.5q131 -110 131 -310q0 -191 -119 -319q-72 -78 -165 -109.5t-251 -31.5h-153l-84 -670h-168zM383 827h147q96 0 158.5 19t104.5 61q41 41 64.5 99.5t23.5 121.5q0 123 -75 187.5t-216 64.5h-139z" />
<glyph unicode="Q" horiz-adv-x="1759" d="M125 733q0 179 61 333.5t168.5 264t258.5 172t325 62.5q222 0 395 -96t269 -268.5t96 -393.5q0 -185 -72 -352q-35 -83 -76.5 -141t-132.5 -150l119 -135l-106 -92l-134 145q-74 -40 -113.5 -57.5t-88.5 -30.5q-98 -25 -199 -25q-223 0 -398.5 97.5t-273.5 272t-98 394.5 zM299 741q0 -271 167.5 -440.5t434.5 -169.5q69 0 131 12q49 10 154 54l-170 190l108 92l189 -203q64 65 93.5 107t57.5 106q62 146 62 306q0 275 -160.5 441.5t-423.5 166.5q-184 0 -331 -85t-229.5 -236.5t-82.5 -340.5z" />
<glyph unicode="R" horiz-adv-x="1112" d="M113 0l188 1536h252q116 0 192 -19.5t134 -62.5q66 -53 104.5 -139t38.5 -182q0 -186 -113 -303.5t-313 -139.5l422 -690h-189l-403 680h-61l-84 -680h-168zM383 819h96q104 0 168 18t109 60q43 41 68.5 105t25.5 131q0 122 -76 184.5t-225 62.5h-98z" />
<glyph unicode="S" horiz-adv-x="1038" d="M27 299l133 78q29 -65 45.5 -94.5t42.5 -55.5q90 -96 241 -96q129 0 210 82t81 213q0 96 -52 159t-210 158q-97 57 -166 111q-149 116 -149 303q0 180 121.5 295t310.5 115q169 0 285 -107q33 -30 53.5 -57.5t50.5 -83.5l-117 -102q-26 48 -44 72.5t-46 49.5 q-78 66 -184 66q-109 0 -184.5 -72.5t-75.5 -177.5q0 -85 48 -142.5t193 -144.5q115 -72 154 -102q186 -137 186 -354q0 -194 -129.5 -318.5t-330.5 -124.5q-96 0 -183 33t-153 94q-43 40 -69.5 81t-61.5 122z" />
<glyph unicode="T" horiz-adv-x="933" d="M104 1380l19 156h921l-20 -156h-369l-170 -1380h-168l170 1380h-383z" />
<glyph unicode="U" horiz-adv-x="1447" d="M166 446q0 68 10 156l115 934h168l-115 -950q-8 -82 -8 -119q0 -72 13.5 -119t47.5 -90q47 -60 126.5 -93.5t170.5 -33.5q181 0 291 119q52 58 81 140t46 220l115 926h168l-115 -942q-18 -139 -49 -242q-54 -178 -194.5 -280.5t-331.5 -102.5q-240 0 -389.5 132 t-149.5 345z" />
<glyph unicode="V" horiz-adv-x="1239" d="M125 1536h172l289 -1165l592 1165h186l-834 -1587z" />
<glyph unicode="W" horiz-adv-x="2060" d="M125 1536h174l285 -1155l573 1200l295 -1196l547 1151h186l-782 -1606l-291 1196l-584 -1196z" />
<glyph unicode="X" horiz-adv-x="1286" d="M-8 0l563 809l-324 727h183l248 -569l387 569h204l-516 -739l355 -797h-185l-276 639l-438 -639h-201z" />
<glyph unicode="Y" horiz-adv-x="1153" d="M109 1536h184l319 -674l465 674h199l-602 -854l-84 -682h-170l88 700z" />
<glyph unicode="Z" horiz-adv-x="1361" d="M45 0l1016 1380h-737l18 156h1028l-1018 -1378h805l-20 -158h-1092z" />
<glyph unicode="[" horiz-adv-x="366" d="M59 -406v2087h387v-155h-219v-1776h219v-156h-387z" />
<glyph unicode="\" horiz-adv-x="1622" d="M258 1769h150l978 -1978h-163z" />
<glyph unicode="]" horiz-adv-x="366" d="M-49 -250h219v1776h-219v155h387v-2087h-387v156z" />
<glyph unicode="^" horiz-adv-x="1058" d="M39 838l405 702h228l405 -702h-188l-332 565l-332 -565h-186z" />
<glyph unicode="_" horiz-adv-x="698" d="M164 776v131h371v-131h-371z" />
<glyph unicode="`" horiz-adv-x="1071" d="M311 1458l170 76l242 -334l-102 -55z" />
<glyph unicode="a" horiz-adv-x="1173" d="M74 434q0 232 138 382.5t353 150.5q83 0 156 -27q57 -21 95 -52t93 -100l19 154h162l-115 -942h-162l16 131q-23 -23 -59 -55q-113 -99 -264 -99q-190 0 -311 128t-121 329zM240 442q0 -135 85 -226t212 -91q141 0 243.5 114t102.5 269v14q0 130 -86.5 212.5t-218.5 82.5 q-143 0 -240.5 -108.5t-97.5 -266.5z" />
<glyph unicode="b" horiz-adv-x="1159" d="M70 0l186 1536h162l-88 -715q61 56 112 88q98 58 213 58q193 0 318 -131t125 -332q0 -145 -65 -266.5t-178 -191t-249 -69.5q-143 0 -246 72q-29 20 -49.5 41.5t-60.5 69.5l-21 -160h-159zM279 442q0 -136 87.5 -225.5t221.5 -89.5q140 0 242 109.5t102 259.5v14 q0 137 -87 222t-220 85q-148 0 -247 -107.5t-99 -267.5z" />
<glyph unicode="c" horiz-adv-x="899" d="M70 444q0 227 141.5 379t353.5 152q74 0 148 -23q51 -15 87 -36t93 -68l-23 -178q-14 18 -51 55q-47 47 -111.5 73.5t-132.5 26.5q-149 0 -244 -105.5t-95 -270.5q0 -148 88.5 -239t234.5 -91q51 0 107 16q42 14 72.5 32t78.5 60l-22 -186q-68 -39 -127.5 -55.5 t-132.5 -16.5q-204 0 -334.5 133t-130.5 342z" />
<glyph unicode="d" horiz-adv-x="1163" d="M68 440q0 225 140.5 376t350.5 151q132 0 232 -70q35 -25 59.5 -49.5t64.5 -75.5l95 764h161l-188 -1536h-162l17 127q-61 -61 -111 -94q-88 -56 -207 -56q-196 0 -324 131t-128 332zM233 440q0 -137 86.5 -226t219.5 -89q141 0 242.5 114t101.5 275v14q0 128 -88 208.5 t-222 80.5q-145 0 -242.5 -108t-97.5 -269z" />
<glyph unicode="e" horiz-adv-x="1060" d="M72 432q0 232 137 387.5t342 155.5q107 0 196 -45.5t148 -128.5q48 -68 68 -149t20 -208v-12h-745q3 -149 81 -231t218 -82q161 0 260 125l125 -74q-75 -105 -167 -153t-218 -48q-211 0 -338 127t-127 336zM250 567h567q-9 120 -81.5 189t-190.5 69q-68 0 -128 -27.5 t-100 -76.5q-26 -31 -39 -61.5t-28 -92.5z" />
<glyph unicode="f" horiz-adv-x="548" d="M70 807l18 147h125l33 271q12 97 33 150t61 93q68 68 180 68q62 0 142 -37l-19 -149q-52 36 -100 36q-66 0 -97 -45q-17 -25 -26.5 -58.5t-18.5 -104.5l-26 -224h186l-18 -147h-187l-98 -807h-160l97 807h-125z" />
<glyph unicode="g" horiz-adv-x="1191" d="M55 -121h154q3 -68 12.5 -104t34.5 -70q35 -46 98 -72t140 -26t142 25t105 71q68 77 88 256l19 156q-30 -24 -62 -52q-113 -86 -260 -86q-189 0 -315.5 131.5t-126.5 329.5q0 225 143.5 377t356.5 152q116 0 211 -56q37 -24 64 -48.5t69 -74.5l20 154h160l-113 -948 q-19 -157 -45 -237t-80 -144q-62 -75 -157.5 -115.5t-210.5 -40.5q-101 0 -195 33q-98 37 -164 109q-50 56 -68.5 114.5t-19.5 165.5zM250 446q0 -139 88 -230t223 -91q143 0 244.5 109t101.5 264v16q0 136 -87 219.5t-224 83.5q-149 0 -247.5 -106t-98.5 -265z" />
<glyph unicode="h" horiz-adv-x="1015" d="M70 0l186 1536h162l-86 -698q68 65 106 86q73 43 170 43q132 0 212.5 -70.5t80.5 -187.5q0 -46 -10 -138l-70 -571h-162l70 571q6 55 6 95q0 72 -44 111.5t-122 39.5q-114 0 -194 -80q-37 -39 -54.5 -85.5t-27.5 -137.5l-64 -514h-159z" />
<glyph unicode="i" horiz-adv-x="425" d="M70 0l114 942h162l-117 -942h-159zM217 1354q0 42 30 73t70 31t68.5 -28t28.5 -68q0 -44 -30 -76.5t-71 -32.5q-40 0 -68 30t-28 71z" />
<glyph unicode="j" horiz-adv-x="438" d="M16 -545l181 1487h161l-180 -1487h-162zM229 1354q0 43 30 73.5t71 30.5q40 0 68 -28t28 -68q0 -44 -29.5 -76.5t-70.5 -32.5q-40 0 -68.5 30t-28.5 71z" />
<glyph unicode="k" horiz-adv-x="952" d="M70 0l186 1536h162l-119 -975l430 381h225l-510 -432l459 -510h-211l-405 463l-58 -463h-159z" />
<glyph unicode="l" horiz-adv-x="409" d="M70 0l186 1536h162l-189 -1536h-159z" />
<glyph unicode="m" horiz-adv-x="1513" d="M70 0l114 942h164l-12 -115q57 59 98 88q79 52 174 52q90 0 142 -38t86 -128q52 61 85.5 89.5t75.5 49.5q61 27 131 27q126 0 197.5 -68.5t71.5 -189.5q0 -45 -13 -144l-67 -565h-162l70 575q8 82 8 105q0 64 -39 100.5t-107 36.5q-54 0 -110 -29q-64 -34 -93.5 -87 t-41.5 -156l-66 -545h-162l68 561q10 82 10 117q0 66 -38 102.5t-107 36.5q-108 0 -176 -78q-32 -35 -49.5 -82t-26.5 -122l-66 -535h-159z" />
<glyph unicode="n" horiz-adv-x="1015" d="M70 0l114 942h160l-14 -117q66 64 104 88q83 54 184 54q129 0 206 -75t77 -200q0 -66 -12 -168l-64 -524h-161l65 551q10 102 10 115q0 72 -42 111.5t-119 39.5q-114 0 -195 -78q-43 -43 -61.5 -92t-30.5 -151l-62 -496h-159z" />
<glyph unicode="o" horiz-adv-x="1153" d="M72 457q0 218 149 368t367 150q204 0 342.5 -132.5t138.5 -332.5v-23q0 -224 -144 -371t-362 -147q-211 0 -351 139.5t-140 348.5zM238 461q0 -148 93.5 -245t235.5 -97q146 0 241 103t95 261v19q0 145 -90.5 234t-230.5 89q-148 0 -246 -104t-98 -260z" />
<glyph unicode="p" horiz-adv-x="1189" d="M16 -539l181 1481h161l-16 -127q72 69 115 94q91 58 213 58q188 0 313 -131.5t125 -329.5q0 -222 -144.5 -375.5t-351.5 -153.5q-145 0 -245 78q-41 34 -103 109l-86 -703h-162zM293 440q0 -137 87 -225t222 -88q145 0 242.5 103t97.5 257v27q0 136 -85.5 219.5 t-215.5 83.5q-148 0 -248 -108.5t-100 -268.5z" />
<glyph unicode="q" horiz-adv-x="1181" d="M70 442q0 222 143.5 373.5t353.5 151.5q102 0 189 -41q48 -23 81.5 -53.5t82.5 -94.5l18 164h162l-180 -1481h-162l82 660q-70 -65 -131 -98q-94 -46 -201 -46q-188 0 -313 133t-125 332zM236 442q0 -136 86.5 -225.5t218.5 -89.5q145 0 247.5 110t102.5 267 q0 137 -87.5 225t-223.5 88q-145 0 -244.5 -109t-99.5 -266z" />
<glyph unicode="r" horiz-adv-x="700" d="M70 0l114 942h160l-12 -106q75 78 125 102q56 29 123 29q44 0 74.5 -11.5t74.5 -44.5l-98 -135q-63 35 -111 35q-36 0 -63 -12q-70 -28 -110.5 -103.5t-57.5 -210.5l-60 -485h-159z" />
<glyph unicode="s" horiz-adv-x="778" d="M20 170l123 78q40 -69 86 -99t111 -30q73 0 118.5 38.5t45.5 100.5q0 40 -15 61q-15 26 -45.5 47t-115.5 62q-114 54 -163.5 115t-49.5 149q0 122 90.5 202.5t228.5 80.5q83 0 148 -28t133 -91l-103 -102q-88 71 -178 71q-66 0 -109.5 -35.5t-43.5 -89.5q0 -35 14 -57 q17 -28 45.5 -47.5t103.5 -54.5q131 -63 179.5 -123t48.5 -158q0 -127 -94 -209t-240 -82q-119 0 -203 64q-38 27 -61.5 55t-53.5 82z" />
<glyph unicode="t" horiz-adv-x="518" d="M53 807l19 147h116l48 389h159l-47 -389h184l-16 -147h-184l-99 -807h-161l98 807h-117z" />
<glyph unicode="u" horiz-adv-x="1026" d="M115 297q0 64 8 121l63 524h162l-65 -541q-7 -68 -7 -102q0 -79 54 -126.5t145 -47.5q60 0 110.5 23t78.5 63q36 46 49 166l67 565h162l-65 -553q-15 -124 -37 -184.5t-70 -110.5q-52 -57 -130.5 -87t-170.5 -30q-164 0 -259 85.5t-95 234.5z" />
<glyph unicode="v" horiz-adv-x="882" d="M31 942h168l188 -666l375 666h180l-600 -1038z" />
<glyph unicode="w" horiz-adv-x="1437" d="M31 942h170l190 -651l371 672l199 -672l354 651h182l-575 -1022l-203 680l-375 -680z" />
<glyph unicode="x" horiz-adv-x="950" d="M-61 0l440 506l-275 436h187l198 -326l271 326h205l-390 -450l314 -492h-191l-231 381l-322 -381h-206z" />
<glyph unicode="y" horiz-adv-x="980" d="M31 -539l352 629l-303 852h172l229 -674l375 674h184l-827 -1481h-182z" />
<glyph unicode="z" horiz-adv-x="1038" d="M4 0l698 797h-528l16 145h830l-698 -795h608l-19 -147h-907z" />
<glyph unicode="{" horiz-adv-x="507" d="M68 573v138q70 19 100.5 65.5t30.5 136.5v451q0 169 67.5 243t222.5 74q5 0 23.5 -1t36.5 -1v-145l-19 2q-101 0 -132 -38t-31 -163v-432q0 -73 -21 -145q-14 -40 -40 -67t-79 -54q41 -23 60.5 -41t40.5 -49q39 -65 39 -182v-418v-45q0 -15 2 -35.5t2 -24.5q3 -20 14 -42 t23 -33q25 -20 55 -23q14 -4 67 -4h19v-146h-62q-157 0 -222.5 77.5t-65.5 262.5v424q0 99 -29.5 147.5t-101.5 67.5z" />
<glyph unicode="|" horiz-adv-x="409" d="M70 0l186 1536h162l-189 -1536h-159z" />
<glyph unicode="}" horiz-adv-x="509" d="M-8 -260h14q58 0 74 4q35 7 55 27q22 20 30.5 58t8.5 112v430q0 73 21 145q14 41 39.5 67.5t80.5 55.5q-41 23 -60.5 40.5t-39.5 49.5q-41 65 -41 182v416v45q0 17 -2 36.5t-2 23.5q-7 48 -37 75q-17 17 -53 25q-28 4 -70 4h-18v143q37 2 61 2q157 0 223 -78t66 -262 v-426q0 -98 30 -146.5t103 -68.5v-135q-71 -19 -102 -66.5t-31 -138.5v-450q0 -168 -68 -242t-223 -74q-13 0 -59 3v143z" />
<glyph unicode="~" horiz-adv-x="1521" d="M236 1405q26 57 47 90q54 91 118.5 133.5t149.5 42.5q87 0 258 -78q60 -29 113 -49q58 -22 110 -22q65 0 110 33t99 120l102 -59q-43 -85 -79 -131q-47 -60 -114.5 -94.5t-139.5 -34.5q-29 0 -87.5 15.5t-103.5 35.5l-131 59q-93 41 -149 41q-61 0 -107 -38t-98 -128z " />
<glyph unicode="&#xa0;" />
<glyph unicode="&#xa1;" horiz-adv-x="2244" d="M322 782l815 813l313 -321l-328 -273h801v-462h-801l328 -269l-313 -319z" />
<glyph unicode="&#xa2;" horiz-adv-x="8220" d="M205 733q0 176 59 330.5t161.5 264t247.5 172.5t312 63q236 0 430 -121q96 -58 96 -94v-5l-16 -135q0 -18 -10 -18q-8 0 -21 16q-79 91 -208 144t-269 53q-173 0 -311.5 -86.5t-216.5 -240.5t-78 -347q0 -280 156.5 -439t431.5 -159q127 0 225 37q109 41 154 86 q18 18 30 18q11 0 11 -16l-19 -150q0 -18 -6 -24q-8 -13 -86 -45q-167 -66 -326 -66q-340 0 -543.5 207.5t-203.5 554.5zM1438 14q0 7 2 9l819 1564q9 19 16 19q11 0 15 -15l456 -1562q2 -4 2 -13q0 -16 -22 -16h-123q-22 0 -31 25l-110 403h-625l-209 -408q-13 -20 -37 -20 h-137q-16 0 -16 14zM1919 586h494l-175 628zM2898 20v3l188 1531q3 23 17 23q6 0 14 -4l942 -1233l143 1167q1 18 7 23.5t24 5.5h119q20 0 20 -18v-2l-186 -1536q-3 -31 -14 -31q-8 0 -21 16l-940 1225l-145 -1155q-2 -15 -10.5 -25t-20.5 -10h-117q-20 0 -20 20zM4344 14 q0 1 1 4.5t1 4.5l821 1564q9 19 14 19q11 0 15 -15l456 -1562q3 -6 3 -13q0 -16 -23 -16h-123q-23 0 -29 25l-112 403h-625l-209 -408q-11 -20 -37 -20h-137q-16 0 -16 14zM4825 586h498l-174 628zM5816 23v4l183 1480q3 29 30 29h113q20 0 20 -20v-5l-161 -1353h444 q23 0 23 -21l-2 -2l-15 -108q-6 -27 -31 -27h-583q-9 0 -15 7t-6 16zM6457 739v123q0 19 21 19h657q21 0 21 20v639q0 19 22 19h121q21 0 21 -19v-633q0 -15 5.5 -20.5t22.5 -5.5h647q21 0 21 -19v-129q0 -16 -17 -16h-659q-12 0 -16 -4t-4 -15v-680q0 -18 -17 -18h-131 q-16 0 -16 18v678q0 21 -21 21h-663q-9 0 -12 4.5t-3 17.5z" />
<glyph unicode="&#xa3;" horiz-adv-x="1292" d="M41 84q37 42 59.5 63t57.5 46q47 31 74 43t77 22q43 76 60.5 134.5t17.5 129.5q0 47 -4 88h-242l15 121h211q-19 123 -19 225q0 292 137 447q69 75 169 117.5t212 42.5q210 0 331.5 -127t135.5 -359l-159 -47q0 177 -86 281t-232 104q-157 0 -252.5 -116.5t-95.5 -307.5 q0 -104 16 -203l8 -53h400l-17 -121h-368v-57q0 -83 -16 -146t-60 -155q11 -2 26 -4.5t19 -3.5q36 -6 168 -60q102 -41 149 -54t93 -13q52 0 104 18q40 15 67 34t68 60l19 19l90 -121q-64 -59 -105 -84q-113 -74 -241 -74q-93 0 -226 50l-129 47q-124 45 -192 45 q-61 0 -121 -35q-33 -19 -57.5 -41t-63.5 -68z" />
<glyph unicode="&#xa5;" horiz-adv-x="1652" d="M100 539v166h158q-6 79 4 167h-162v168h205q54 157 172.5 278.5t274 187t321.5 65.5q120 0 220 -36t214 -110l-22 -186q-90 80 -201.5 124t-230.5 44q-177 0 -333.5 -103t-225.5 -264h966l-20 -168h-1000q-10 -55 -6 -167h985l-20 -166h-926q61 -179 227.5 -294.5 t356.5 -115.5q145 0 301 78l-23 -191q-146 -47 -278 -47q-267 0 -473.5 157t-294.5 413h-189z" />
<glyph unicode="&#xa6;" />
<glyph unicode="&#xa7;" horiz-adv-x="1185" d="M121 641q0 258 229 363q-69 40 -104 75q-41 43 -64.5 105.5t-23.5 130.5q0 163 115.5 273t287.5 110q78 0 155.5 -30.5t127.5 -80.5q98 -101 110 -323h-163q0 71 -19 129q-22 69 -77.5 108t-133.5 39q-106 0 -171.5 -65.5t-65.5 -171.5q0 -104 79 -162q40 -32 99 -54 q15 -7 102 -36q168 -60 236 -117q57 -47 89 -124.5t32 -166.5q0 -147 -93 -254q-27 -31 -53.5 -51t-85.5 -55q75 -44 109 -78q40 -41 63 -105.5t23 -136.5q0 -173 -111 -279t-293 -106q-183 0 -291 111q-52 52 -75.5 124.5t-28.5 192.5h166q4 -77 20 -131 q20 -64 76.5 -100.5t136.5 -36.5q108 0 169 61t61 170q0 87 -47 142t-156 98l-102 41q-89 36 -135 60.5t-81 56.5q-112 100 -112 274zM291 647q0 -106 73 -180t177 -74q103 0 175 74t72 178q0 105 -72.5 178.5t-176.5 73.5q-101 0 -174.5 -73.5t-73.5 -176.5z" />
<glyph unicode="&#xa8;" horiz-adv-x="1144" d="M295 1190q0 46 32 78t76 32q41 0 71 -30.5t30 -73.5q0 -46 -31.5 -77.5t-75.5 -31.5q-43 0 -72.5 30t-29.5 73zM659 1188q0 44 32 77t75 33q41 0 71.5 -30.5t30.5 -71.5q0 -47 -31 -80t-75 -33q-43 0 -73 30.5t-30 74.5z" />
<glyph unicode="&#xa9;" horiz-adv-x="1751" d="M78 768q0 212 105.5 395.5t285.5 291.5t389 108q165 0 315 -62t257.5 -167.5t171 -252t63.5 -307.5q0 -219 -106 -403t-289 -291t-400 -107q-161 0 -307.5 63t-252.5 169.5t-168.5 254t-63.5 308.5zM207 774q0 -138 52 -262t140.5 -214t211.5 -143t259 -53 q181 0 334.5 89.5t242.5 242.5t89 334q0 178 -88.5 331.5t-239.5 244t-327 90.5q-184 0 -339.5 -88.5t-245 -240t-89.5 -331.5zM389 748q0 216 140.5 357.5t355.5 141.5q93 0 190 -33q46 -17 76.5 -34.5t79.5 -53.5l-21 -157l-22 24q-55 61 -134 95t-169 34 q-158 0 -258.5 -105t-100.5 -269q0 -154 96 -244t259 -90q106 0 184 41q7 3 47 26q3 3 8 7t16.5 13t26.5 21l-20 -162l-8 -6q-133 -65 -275 -65q-207 0 -339 128.5t-132 330.5z" />
<glyph unicode="&#xaa;" horiz-adv-x="1804" d="M102 539v462h799l-326 273l314 321l813 -813l-813 -831l-314 319l326 269h-799z" />
<glyph unicode="&#xab;" horiz-adv-x="1089" d="M72 492l342 432l108 -84l-274 -348l274 -338l-108 -86zM414 492l344 432l106 -84l-274 -348l274 -338l-106 -86z" />
<glyph unicode="&#xac;" horiz-adv-x="1144" d="M104 453v161h1000v-614h-174v453h-826z" />
<glyph unicode="&#xad;" horiz-adv-x="370" d="M0 367v125h371v-125h-371z" />
<glyph unicode="&#xae;" horiz-adv-x="1751" d="M78 768q0 212 105.5 395.5t285.5 291.5t389 108q165 0 315 -62t257.5 -167.5t171 -252t63.5 -307.5q0 -219 -106 -403t-289 -291t-400 -107q-161 0 -307.5 63t-252.5 169.5t-168.5 254t-63.5 308.5zM207 774q0 -138 52 -262t140.5 -214t211.5 -143t259 -53 q181 0 334.5 89.5t242.5 242.5t89 334q0 178 -88.5 331.5t-239.5 244t-327 90.5q-184 0 -339.5 -88.5t-245 -240t-89.5 -331.5zM549 307l113 922h172q142 0 210 -51q45 -33 71 -85.5t26 -111.5q0 -107 -66.5 -178.5t-183.5 -91.5l266 -404h-156l-253 395h-15l-49 -395h-135z M748 813h43q83 0 129 21q37 17 59 56t22 85q0 133 -174 133h-45z" />
<glyph unicode="&#xaf;" horiz-adv-x="1153" d="M158 1184v137h694v-137h-694z" />
<glyph unicode="&#xb0;" horiz-adv-x="1298" d="M436 1251q0 126 89.5 217t213.5 91q131 0 221.5 -89.5t90.5 -218.5q0 -127 -90 -217t-218 -90q-127 0 -217 90t-90 217zM555 1251q0 -78 55 -133t133 -55t133.5 55.5t55.5 134.5q0 77 -55.5 133t-131.5 56q-79 0 -134.5 -55.5t-55.5 -135.5z" />
<glyph unicode="&#xb1;" />
<glyph unicode="&#xb2;" />
<glyph unicode="&#xb3;" />
<glyph unicode="&#xb4;" horiz-adv-x="897" d="M406 1200l241 334l172 -76l-311 -313z" />
<glyph unicode="&#xb5;" horiz-adv-x="1912" d="M135 786l830 813l815 -813l-322 -313l-272 326v-799h-463v799l-268 -326z" />
<glyph unicode="&#xb6;" horiz-adv-x="1300" d="M111 1120q0 201 127 308.5t366 107.5h629l-90 -156h-107l-196 -1607h-142l197 1607h-219l-199 -1607h-141l121 983h-31q-144 0 -229.5 99t-85.5 265z" />
<glyph unicode="&#xb7;" horiz-adv-x="10405" d="M205 -516v2513h9996v-2513h-9996zM645 735q0 -237 104.5 -419.5t294.5 -283t435 -100.5q206 0 325 72q15 9 20 18t9 41l41 283q2 18 2 31q0 18 -6 18q-7 0 -19 -6q-6 -3 -45 -16q-179 -51 -288 -51q-180 0 -297 121t-117 307q0 201 133.5 327.5t345.5 126.5 q90 0 186.5 -25.5t165.5 -68.5q43 -29 56 -29q9 0 12.5 7t9.5 38l51 256q7 35 7 37q0 17 -19 31q-100 64 -239.5 101.5t-280.5 37.5q-254 0 -456.5 -109.5t-316.5 -304.5t-114 -440zM1958 14q0 -14 16 -14h398q36 0 49 25l102 211q7 15 15 19.5t26 4.5h500q12 0 22 -7.5 t11 -19.5l53 -213q7 -20 28 -20h355q18 0 18 18v9l-305 1476q-4 19 -12 26t-23 7h-473q-22 0 -30 -5t-17 -24l-729 -1474q-4 -12 -4 -19zM2685 610q1 3 2 6.5t2 6.5l199 450q7 14 10 14q7 0 10 -20l105 -436q4 -16 4 -19q0 -8 -21 -8h-297q-14 0 -14 6zM3746 20 q0 -13 6 -16.5t29 -3.5h342q29 0 32 29l123 876q4 27 6 27q3 0 17 -21l502 -882q15 -29 49 -29h350q36 0 39 25l205 1482v6q0 13 -6 18t-21 5h-362q-23 0 -30.5 -6t-10.5 -25l-111 -794q-3 -31 -10 -31q-6 0 -19 22l-458 805q-10 20 -18 24.5t-32 4.5h-389q-30 0 -33 -27 l-200 -1480v-9zM5419 10q0 -10 16 -10h394q31 0 43 23l110 215q7 15 14.5 18.5t28.5 3.5h473q24 0 31 -5.5t12 -27.5l39 -198q3 -17 11.5 -23t27.5 -6h350q25 0 25 12q0 15 -2 21l-309 1472q-5 20 -11 25.5t-26 5.5h-451q-21 0 -29.5 -5t-15.5 -22l-725 -1480q-6 -12 -6 -19 zM6136 616q0 7 4 19l201 452q9 19 12 19q4 0 8 -19l98 -448q0 -3 1 -10.5t1 -10.5q0 -14 -22 -14h-277q-26 0 -26 12zM7164 16q0 -16 18 -16h860q28 0 31 25l41 292v9q0 12 -4 16t-16 4h-412q-25 0 -25 23v4l154 1136v9q0 11 -4 14.5t-16 3.5h-387q-12 0 -18 -7t-9 -26 l-213 -1476v-11zM8129 633q0 -27 24 -27h545q26 0 26 -31v-550q0 -25 23 -25h420q22 0 22 29v551q0 17 5 21.5t22 4.5h508q22 0 22 25v418q0 15 -5 20.5t-17 5.5h-514q-12 0 -16.5 6t-4.5 23v473q0 20 -26 20h-418q-21 0 -21 -20v-473q0 -29 -24 -29h-549q-22 0 -22 -22 v-420z" />
<glyph unicode="&#xb8;" horiz-adv-x="1077" d="M358 -416l185 307l157 -84l-245 -280z" />
<glyph unicode="&#xb9;" />
<glyph unicode="&#xba;" horiz-adv-x="1931" d="M143 813l322 315l272 -327v798h463v-798l268 327l320 -315l-832 -813z" />
<glyph unicode="&#xbb;" horiz-adv-x="1089" d="M47 154l272 338l-272 348l107 84l344 -432l-344 -424zM389 154l275 338l-275 348l107 84l344 -432l-344 -424z" />
<glyph unicode="&#xbc;" />
<glyph unicode="&#xbd;" />
<glyph unicode="&#xbe;" />
<glyph unicode="&#xbf;" horiz-adv-x="1075" d="M18 -20q0 89 39.5 170t102.5 122q44 28 102 47l39 13v274h168v-393q-76 -1 -116.5 -15.5t-88.5 -54.5q-6 -4 -10 -8q-1 0 -2 -1t-2 -1q-68 -59 -68 -153q0 -90 58.5 -148.5t148.5 -58.5q88 0 144.5 55.5t56.5 140.5q0 36 -15 97h168l5 -31q4 -25 4 -78 q0 -146 -105.5 -244t-263.5 -98q-157 0 -261 104t-104 261zM268 1077q0 47 34 81t81 34q48 0 81.5 -34t33.5 -83q0 -46 -33.5 -79t-79.5 -33q-49 0 -83 33.5t-34 80.5z" />
<glyph unicode="&#xc0;" horiz-adv-x="1488" d="M33 0h186l238 434h655l127 -434h186l-329 1083h69l-155 514h-183l35 -118zM545 594l340 614l178 -614h-518z" />
<glyph unicode="&#xc1;" horiz-adv-x="1413" d="M-33 0l854 1630l473 -1630h-174l-119 428h-624l-225 -428h-185zM457 586h495l-174 628zM776 1724l246 306l129 -91l-289 -272z" />
<glyph unicode="&#xc2;" horiz-adv-x="1490" d="M33 4l608 1081h-37l281 517h98l147 -517h-34l331 -1081h-188l-127 432h-655l-238 -432h-186zM545 596h520l-180 614z" />
<glyph unicode="&#xc3;" horiz-adv-x="1357" d="M-33 0l854 1630l473 -1630h-174l-119 428h-624l-225 -428h-185zM457 586h495l-174 628zM492 1755q41 63 69 96q65 68 152 68q24 0 45 -6q28 -6 63 -23q58 -25 80 -35q64 -30 100 -30q28 0 49.5 18t51.5 70l102 -62q-52 -89 -101.5 -125t-115.5 -36q-37 0 -61 8 q-40 11 -131 57q-58 27 -90 27q-65 0 -109 -90z" />
<glyph unicode="&#xc4;" horiz-adv-x="1357" d="M-33 0l854 1630l473 -1630h-174l-119 428h-624l-225 -428h-185zM457 586h495l-174 628zM557 1794q0 44 32.5 76.5t76.5 32.5q41 0 70.5 -30.5t29.5 -74.5q0 -46 -31 -77t-76 -31q-43 0 -72.5 30t-29.5 74zM922 1794q0 46 31.5 78.5t74.5 32.5q41 0 71.5 -31t30.5 -72 q0 -46 -31 -79t-75 -33q-43 0 -72.5 30t-29.5 74z" />
<glyph unicode="&#xc5;" horiz-adv-x="1357" d="M-33 0l854 1630l473 -1630h-174l-119 428h-624l-225 -428h-185zM457 586h495l-174 628zM653 1876q0 77 54.5 130.5t132.5 53.5q75 0 129.5 -52.5t54.5 -127.5q0 -80 -54 -135t-132 -55q-75 0 -130 55t-55 131zM760 1876q0 -32 23 -56t55 -24q34 0 57 24t23 58v2 q0 32 -23.5 54t-56.5 22q-32 0 -55 -24t-23 -56z" />
<glyph unicode="&#xc6;" horiz-adv-x="2045" d="M-33 0l850 1536h705l45 -158h-627l139 -469h627l45 -155h-627l176 -596h627l45 -158h-807l-121 436h-647l-239 -436h-191zM487 590h508l-172 616z" />
<glyph unicode="&#xc7;" horiz-adv-x="1353" d="M125 729q0 239 100.5 430.5t279.5 299.5t402 108q129 0 237.5 -33.5t225.5 -110.5q66 -43 66 -61q0 -2 -0.5 -5.5t-1.5 -10t-2 -13.5l-15 -108v-8q-3 -25 -12 -25q-4 0 -16 14q-70 86 -207 142.5t-273 56.5q-176 0 -315.5 -87t-218 -242.5t-78.5 -350.5 q0 -271 159.5 -432.5t426.5 -161.5q122 0 236 39t177 102l4 4q3 3 7 3t4 -11v-10l-21 -156q-6 -42 -117 -81.5t-258 -51.5l-20 -116h-176l18 118q-295 63 -453.5 259.5t-158.5 498.5z" />
<glyph unicode="&#xc8;" horiz-adv-x="1054" d="M113 0l188 1536h113l-15 63h527l16 -63h113l-21 -156h-583l-58 -469h584l-19 -157h-583l-74 -596h584l-21 -158h-751z" />
<glyph unicode="&#xc9;" horiz-adv-x="1054" d="M113 0l188 1536h113l30 63h529l-31 -63h113l-21 -156h-583l-58 -469h584l-19 -157h-583l-74 -596h584l-21 -158h-751z" />
<glyph unicode="&#xca;" horiz-adv-x="1054" d="M113 0l188 1536h113l28 63h482l16 -63h115l-21 -156h-583l-58 -469h584l-19 -157h-583l-74 -596h584l-21 -158h-751z" />
<glyph unicode="&#xcb;" horiz-adv-x="1052" d="M113 2l188 1534h107l8 63h207l-9 -63h127l9 63h206l-8 -63h105l-21 -156h-581l-58 -469h582l-19 -155h-581l-74 -596h582l-21 -158h-749zM614 1536h127h-127z" />
<glyph unicode="&#xcc;" horiz-adv-x="645" d="M113 0l188 1536h170l-190 -1536h-168zM154 1942l149 88l172 -308l-98 -55z" />
<glyph unicode="&#xcd;" horiz-adv-x="636" d="M113 0l155 1278h172l-155 -1278h-172zM281 1364l20 172h172l-20 -172h-172z" />
<glyph unicode="&#xce;" horiz-adv-x="423" d="M39 2h172l172 1405h-172zM147 1470l70 129h209l35 -129h-314z" />
<glyph unicode="&#xcf;" horiz-adv-x="442" d="M35 2h172l172 1405h-172zM141 1473l15 126h129l-17 -126h-127zM334 1473l14 126h129l-16 -126h-127z" />
<glyph unicode="&#xd0;" />
<glyph unicode="&#xd1;" horiz-adv-x="1712" d="M113 0l196 1602l969 -1264l147 1198h170l-198 -1612l-969 1266l-147 -1190h-168zM1026 1536h234l-43 -338z" />
<glyph unicode="&#xd2;" horiz-adv-x="1740" d="M125 733q0 177 61.5 332t168.5 265t258.5 173.5t324.5 63.5q222 0 396 -94.5t271 -264.5t97 -385q0 -184 -60.5 -343t-167.5 -271t-258 -176t-327 -64q-220 0 -394.5 97.5t-272 272t-97.5 394.5zM297 739q0 -174 77 -313t213.5 -217t307.5 -78q134 0 251.5 52t202 141.5 t133 215.5t48.5 269v22q0 262 -162.5 418t-425.5 156q-183 0 -330.5 -86t-231 -238.5t-83.5 -341.5zM774 1942l152 88l172 -308l-101 -55z" />
<glyph unicode="&#xd3;" horiz-adv-x="1740" d="M125 733q0 177 61.5 332t168.5 265t258.5 173.5t324.5 63.5q222 0 396 -94.5t271 -264.5t97 -385q0 -184 -60.5 -343t-167.5 -271t-258 -176t-327 -64q-220 0 -394.5 97.5t-272 272t-97.5 394.5zM297 739q0 -174 77 -313t213.5 -217t307.5 -78q134 0 251.5 52t202 141.5 t133 215.5t48.5 269v22q0 262 -162.5 418t-425.5 156q-183 0 -330.5 -86t-231 -238.5t-83.5 -341.5zM963 1724l245 306l131 -91l-290 -272z" />
<glyph unicode="&#xd4;" horiz-adv-x="1755" d="M125 733q0 231 103 420t284 299l41 78q177 88 334 88h78q166 0 329 -94l13 -43q182 -92 284.5 -264.5t102.5 -393.5q0 -370 -228 -610t-581 -240q-331 0 -547 213q-213 216 -213 547zM297 739q0 -263 168 -434q170 -170 426 -170q269 0 450 193q183 195 183 481v22 q0 261 -162 416q-164 156 -424 156q-276 0 -459 -189q-182 -188 -182 -475z" />
<glyph unicode="&#xd5;" horiz-adv-x="1740" d="M125 733q0 177 61.5 332t168.5 265t258.5 173.5t324.5 63.5q222 0 396 -94.5t271 -264.5t97 -385q0 -184 -60.5 -343t-167.5 -271t-258 -176t-327 -64q-220 0 -394.5 97.5t-272 272t-97.5 394.5zM297 739q0 -174 77 -313t213.5 -217t307.5 -78q134 0 251.5 52t202 141.5 t133 215.5t48.5 269v22q0 262 -162.5 418t-425.5 156q-183 0 -330.5 -86t-231 -238.5t-83.5 -341.5zM682 1755q38 58 70 96q65 68 151 68q24 0 45 -6q30 -6 64 -23q58 -25 80 -35q64 -30 100 -30q28 0 49 18t51 70l103 -62q-52 -89 -101.5 -125t-115.5 -36q-38 0 -62 8 q-40 11 -131 57q-58 27 -90 27q-65 0 -109 -90z" />
<glyph unicode="&#xd6;" horiz-adv-x="1740" d="M125 733q0 177 61.5 332t168.5 265t258.5 173.5t324.5 63.5q222 0 396 -94.5t271 -264.5t97 -385q0 -184 -60.5 -343t-167.5 -271t-258 -176t-327 -64q-220 0 -394.5 97.5t-272 272t-97.5 394.5zM297 739q0 -174 77 -313t213.5 -217t307.5 -78q134 0 251.5 52t202 141.5 t133 215.5t48.5 269v22q0 262 -162.5 418t-425.5 156q-183 0 -330.5 -86t-231 -238.5t-83.5 -341.5zM754 1794q0 45 31 77t75 32q43 0 72 -30.5t29 -74.5q0 -46 -30.5 -77t-74.5 -31q-43 0 -72.5 30t-29.5 74zM1118 1794q0 46 31 78.5t74 32.5q41 0 72.5 -31t31.5 -72 q0 -47 -31.5 -79.5t-76.5 -32.5q-43 0 -72 30t-29 74z" />
<glyph unicode="&#xd7;" />
<glyph unicode="&#xd8;" horiz-adv-x="1193" d="M104 0v1536h701v-160h-526v-456h509v-160h-509v-760h-175zM668 90q0 47 33 81t79 34q50 0 82.5 -32.5t32.5 -82.5q0 -46 -33.5 -79.5t-79.5 -33.5q-47 0 -80.5 33t-33.5 80z" />
<glyph unicode="&#xd9;" horiz-adv-x="1447" d="M164 444q0 64 10 156l115 932h168l-115 -948q-8 -60 -8 -119q0 -133 61 -209q103 -127 297 -127q182 0 289 119q97 108 127 360l115 924h77l9 65h172l-66 -516h-80l-59 -489q-16 -138 -49 -242q-54 -178 -194 -280.5t-331 -102.5q-240 0 -389 131t-149 346z" />
<glyph unicode="&#xda;" horiz-adv-x="1519" d="M166 446q0 68 10 156l115 934h168l-115 -950q-8 -82 -8 -119q0 -72 13.5 -119t47.5 -90q47 -60 126.5 -93.5t170.5 -33.5q181 0 291 119q52 58 81 140t46 220l115 926h168l-115 -942q-18 -139 -49 -242q-54 -178 -194.5 -280.5t-331.5 -102.5q-240 0 -389.5 132 t-149.5 345zM799 1724l245 306l130 -91l-289 -272z" />
<glyph unicode="&#xdb;" horiz-adv-x="1447" d="M168 446q0 64 10 156l98 805h168l-98 -821q-8 -60 -8 -119q0 -133 61 -209q101 -125 297 -125q183 0 291 117q93 106 127 360l98 797h168l-100 -813q-16 -138 -49 -242q-54 -177 -194 -279t-330 -102q-241 0 -390 131t-149 344zM508 1470h651l-37 129h-563z" />
<glyph unicode="&#xdc;" horiz-adv-x="1447" d="M168 444q0 64 10 156l98 805h168l-100 -821q-8 -60 -8 -119q0 -133 61 -209q103 -127 297 -127q184 0 291 119q97 108 127 360l98 797h168l-98 -813q-16 -138 -49 -242q-54 -178 -194.5 -280.5t-331.5 -102.5q-241 0 -390 131q-147 132 -147 346zM285 1468l14 129h168 l-14 -129h-168zM1219 1468l16 129h168l-17 -129h-167z" />
<glyph unicode="&#xdd;" />
<glyph unicode="&#xde;" />
<glyph unicode="&#xdf;" horiz-adv-x="1140" d="M113 0l100 805h-100l14 125h100l41 330q15 121 41.5 194.5t75.5 130.5q100 121 281 121q172 0 277.5 -105.5t105.5 -277.5q0 -155 -79 -269t-222 -165q89 -40 137 -80q64 -58 100.5 -139.5t36.5 -169.5q0 -97 -33.5 -194t-91.5 -167q-127 -153 -346 -153q-71 0 -148 18 l19 143q66 -14 121 -14q141 0 227 103t86 272q0 84 -31 153t-86 107q-75 55 -233 61l14 125h17q67 0 104 8.5t78 32.5q72 45 118 138t46 198q0 102 -59.5 165t-155.5 63q-104 0 -162 -76t-78 -240l-154 -1243h-161z" />
<glyph unicode="&#xe0;" horiz-adv-x="1173" d="M74 434q0 232 138 382.5t353 150.5q83 0 156 -27q57 -21 95 -52t93 -100l19 154h162l-115 -942h-162l16 131q-23 -23 -59 -55q-113 -99 -264 -99q-190 0 -311 128t-121 329zM240 442q0 -135 85 -226t212 -91q141 0 243.5 114t102.5 269v14q0 130 -86.5 212.5t-218.5 82.5 q-143 0 -240.5 -108.5t-97.5 -266.5zM412 1368l151 90l172 -311l-100 -57z" />
<glyph unicode="&#xe1;" horiz-adv-x="1173" d="M74 434q0 232 138 382.5t353 150.5q83 0 156 -27q57 -21 95 -52t93 -100l19 154h162l-115 -942h-162l16 131q-23 -23 -59 -55q-113 -99 -264 -99q-190 0 -311 128t-121 329zM240 442q0 -135 85 -226t212 -91q141 0 243.5 114t102.5 269v14q0 130 -86.5 212.5t-218.5 82.5 q-143 0 -240.5 -108.5t-97.5 -266.5zM600 1149l246 309l131 -90l-291 -278z" />
<glyph unicode="&#xe2;" horiz-adv-x="1173" d="M74 434q0 232 138 382.5t353 150.5q83 0 156 -27q57 -21 95 -52t93 -100l19 154h162l-115 -942h-162l16 131q-23 -23 -59 -55q-113 -99 -264 -99q-190 0 -311 128t-121 329zM240 442q0 -135 85 -226t212 -91q141 0 243.5 114t102.5 269v14q0 130 -86.5 212.5t-218.5 82.5 q-143 0 -240.5 -108.5t-97.5 -266.5zM389 1176l320 284l243 -284l-86 -84l-172 198l-225 -200z" />
<glyph unicode="&#xe3;" horiz-adv-x="1173" d="M74 434q0 232 138 382.5t353 150.5q83 0 156 -27q57 -21 95 -52t93 -100l19 154h162l-115 -942h-162l16 131q-23 -23 -59 -55q-113 -99 -264 -99q-190 0 -311 128t-121 329zM240 442q0 -135 85 -226t212 -91q141 0 243.5 114t102.5 269v14q0 130 -86.5 212.5t-218.5 82.5 q-143 0 -240.5 -108.5t-97.5 -266.5zM319 1165q50 77 70 97q63 69 152 69q22 0 43 -6q24 -4 65 -22q26 -13 78 -37q69 -31 100 -31q29 0 50.5 19t52.5 71l102 -63q-53 -89 -102 -126.5t-115 -37.5q-30 0 -63 10q-43 13 -131 57q-58 27 -91 27q-34 0 -58.5 -21t-49.5 -71z " />
<glyph unicode="&#xe4;" horiz-adv-x="1173" d="M74 434q0 232 138 382.5t353 150.5q83 0 156 -27q57 -21 95 -52t93 -100l19 154h162l-115 -942h-162l16 131q-23 -23 -59 -55q-113 -99 -264 -99q-190 0 -311 128t-121 329zM240 442q0 -135 85 -226t212 -91q141 0 243.5 114t102.5 269v14q0 130 -86.5 212.5t-218.5 82.5 q-143 0 -240.5 -108.5t-97.5 -266.5zM389 1208q0 46 32.5 78.5t76.5 32.5q41 0 70.5 -31t29.5 -74q0 -47 -31 -79.5t-75 -32.5q-43 0 -73 31t-30 75zM754 1204q0 46 31.5 79.5t72.5 33.5q42 0 73.5 -31.5t31.5 -73.5q0 -47 -32 -80.5t-75 -33.5t-72.5 31t-29.5 75z" />
<glyph unicode="&#xe5;" horiz-adv-x="1173" d="M74 434q0 232 138 382.5t353 150.5q83 0 156 -27q57 -21 95 -52t93 -100l19 154h162l-115 -942h-162l16 131q-23 -23 -59 -55q-113 -99 -264 -99q-190 0 -311 128t-121 329zM240 442q0 -135 85 -226t212 -91q141 0 243.5 114t102.5 269v14q0 130 -86.5 212.5t-218.5 82.5 q-143 0 -240.5 -108.5t-97.5 -266.5zM500 1286q0 78 54.5 133.5t131.5 55.5q75 0 129.5 -54t54.5 -129q0 -82 -54 -138t-132 -56q-75 0 -129.5 55.5t-54.5 132.5zM606 1288q0 -34 23 -58t57 -24q32 0 55 24t23 58v4q0 32 -23 54t-55 22q-33 0 -56.5 -23.5t-23.5 -56.5z" />
<glyph unicode="&#xe6;" horiz-adv-x="1705" d="M39 293q0 135 108 225t269 90q184 0 305 -121l6 58l8 71q4 32 4 50q0 77 -64.5 118t-185.5 41q-55 0 -104 -8q-48 -6 -141 -31l20 154q140 35 246 35q150 0 246 -57q37 -21 58 -46t46 -77q132 180 334 180q190 0 309 -137t119 -357q0 -29 -2 -47h-748v-33 q0 -127 84.5 -204.5t221.5 -77.5q115 0 198 61q24 17 70 66l113 -82q-149 -195 -392 -195q-155 0 -262 76q-42 30 -64.5 56t-49.5 79q-66 -109 -152 -160t-205 -51q-167 0 -281 93t-114 231zM205 293q0 -75 68 -124.5t171 -49.5q109 0 180.5 49t71.5 125q0 1 -1 4.5t-1 5.5 q-6 72 -76 114t-184 42q-100 0 -164.5 -47t-64.5 -119zM889 569h579q-11 119 -85.5 187.5t-192.5 68.5q-68 0 -129.5 -28t-102.5 -78q-24 -30 -37.5 -60t-31.5 -90z" />
<glyph unicode="&#xe7;" horiz-adv-x="894" d="M70 444q0 227 141.5 379t353.5 152q74 0 148 -23q51 -15 87 -36t93 -68l-23 -178q-14 18 -51 55q-47 47 -111.5 73.5t-132.5 26.5q-149 0 -244 -105.5t-95 -270.5q0 -148 88.5 -239t234.5 -91q51 0 107 16q42 14 72.5 32t78.5 60l-22 -186q-36 -23 -58 -32t-73 -23 q-47 -11 -74 -13l-10 -79h-156l10 90q-167 26 -265.5 150.5t-98.5 309.5z" />
<glyph unicode="&#xe8;" horiz-adv-x="1060" d="M72 432q0 232 137 387.5t342 155.5q107 0 196 -45.5t148 -128.5q48 -68 68 -149t20 -208v-12h-745q3 -149 81 -231t218 -82q161 0 260 125l125 -74q-75 -105 -167 -153t-218 -48q-211 0 -338 127t-127 336zM250 567h567q-9 120 -81.5 189t-190.5 69q-68 0 -128 -27.5 t-100 -76.5q-26 -31 -39 -61.5t-28 -92.5zM346 1368l150 90l172 -311l-99 -57z" />
<glyph unicode="&#xe9;" horiz-adv-x="1060" d="M72 432q0 232 137 387.5t342 155.5q107 0 196 -45.5t148 -128.5q48 -68 68 -149t20 -208v-12h-745q3 -149 81 -231t218 -82q161 0 260 125l125 -74q-75 -105 -167 -153t-218 -48q-211 0 -338 127t-127 336zM250 567h567q-9 120 -81.5 189t-190.5 69q-68 0 -128 -27.5 t-100 -76.5q-26 -31 -39 -61.5t-28 -92.5zM535 1149l245 309l129 -90l-288 -278z" />
<glyph unicode="&#xea;" horiz-adv-x="1060" d="M72 432q0 232 137 387.5t342 155.5q107 0 196 -45.5t148 -128.5q48 -68 68 -149t20 -208v-12h-745q3 -149 81 -231t218 -82q161 0 260 125l125 -74q-75 -105 -167 -153t-218 -48q-211 0 -338 127t-127 336zM250 567h567q-9 120 -81.5 189t-190.5 69q-68 0 -128 -27.5 t-100 -76.5q-26 -31 -39 -61.5t-28 -92.5zM324 1176l319 284l244 -284l-88 -84l-170 198l-226 -200z" />
<glyph unicode="&#xeb;" horiz-adv-x="1060" d="M72 432q0 232 137 387.5t342 155.5q107 0 196 -45.5t148 -128.5q48 -68 68 -149t20 -208v-12h-745q3 -149 81 -231t218 -82q161 0 260 125l125 -74q-75 -105 -167 -153t-218 -48q-211 0 -338 127t-127 336zM250 567h567q-9 120 -81.5 189t-190.5 69q-68 0 -128 -27.5 t-100 -76.5q-26 -31 -39 -61.5t-28 -92.5zM324 1208q0 46 31.5 78.5t76.5 32.5q41 0 69.5 -31t28.5 -74q0 -47 -30 -79.5t-74 -32.5q-43 0 -72.5 31t-29.5 75zM688 1204q0 46 31 79.5t74 33.5q41 0 71.5 -31.5t30.5 -73.5q0 -47 -31.5 -80.5t-75.5 -33.5q-43 0 -71.5 31 t-28.5 75z" />
<glyph unicode="&#xec;" horiz-adv-x="532" d="M10 1368l150 90l172 -311l-101 -57zM45 0l115 942h162l-115 -942h-162z" />
<glyph unicode="&#xed;" horiz-adv-x="534" d="M70 0l114 942h162l-117 -942h-159zM221 1149l248 309l129 -90l-289 -278z" />
<glyph unicode="&#xee;" horiz-adv-x="532" d="M16 1176l320 284l244 -284l-88 -84l-170 198l-228 -200zM74 0l114 942h162l-114 -942h-162z" />
<glyph unicode="&#xef;" horiz-adv-x="540" d="M10 1206q0 47 31.5 80t77.5 33q41 0 69.5 -31.5t28.5 -75.5q0 -46 -30 -78t-74 -32q-43 0 -73 30.5t-30 73.5zM45 0l115 942h162l-115 -942h-162zM328 1204q0 46 31.5 79.5t72.5 33.5q42 0 73.5 -31.5t31.5 -73.5q0 -47 -31.5 -80.5t-75.5 -33.5q-43 0 -72.5 31t-29.5 75 z" />
<glyph unicode="&#xf0;" />
<glyph unicode="&#xf1;" horiz-adv-x="1136" d="M70 0l114 942h160l-14 -117q66 64 104 88q83 54 184 54q129 0 206 -75t77 -200q0 -66 -12 -168l-64 -524h-161l65 551q10 102 10 115q0 72 -42 111.5t-119 39.5q-114 0 -195 -78q-43 -43 -61.5 -92t-30.5 -151l-62 -496h-159zM238 1165q8 12 18.5 29t15 23.5t11 15.5 t12 15.5t12.5 13.5q63 69 152 69q22 0 43 -6q24 -4 65 -22q3 -1 28.5 -14t49.5 -23q63 -31 100 -31q29 0 50.5 19t52.5 71l102 -63q-53 -89 -102 -126.5t-115 -37.5q-30 0 -63 10q-43 13 -131 57q-58 27 -90 27q-63 0 -109 -92z" />
<glyph unicode="&#xf2;" horiz-adv-x="1175" d="M72 457q0 218 149 368t367 150q204 0 342.5 -132.5t138.5 -332.5v-23q0 -224 -144 -371t-362 -147q-211 0 -351 139.5t-140 348.5zM238 461q0 -148 93.5 -245t235.5 -97q146 0 241 103t95 261v19q0 145 -90.5 234t-230.5 89q-148 0 -246 -104t-98 -260zM395 1368l152 90 l170 -311l-99 -57z" />
<glyph unicode="&#xf3;" horiz-adv-x="1175" d="M72 457q0 218 149 368t367 150q204 0 342.5 -132.5t138.5 -332.5v-23q0 -224 -144 -371t-362 -147q-211 0 -351 139.5t-140 348.5zM238 461q0 -148 93.5 -245t235.5 -97q146 0 241 103t95 261v19q0 145 -90.5 234t-230.5 89q-148 0 -246 -104t-98 -260zM584 1149l245 309 l129 -90l-288 -278z" />
<glyph unicode="&#xf4;" horiz-adv-x="1175" d="M72 457q0 218 149 368t367 150q204 0 342.5 -132.5t138.5 -332.5v-23q0 -224 -144 -371t-362 -147q-211 0 -351 139.5t-140 348.5zM238 461q0 -148 93.5 -245t235.5 -97q146 0 241 103t95 261v19q0 145 -90.5 234t-230.5 89q-148 0 -246 -104t-98 -260zM373 1176l319 284 l244 -284l-86 -84l-172 198l-225 -200z" />
<glyph unicode="&#xf5;" horiz-adv-x="1173" d="M72 457q0 218 149 368t367 150q204 0 342.5 -132.5t138.5 -332.5v-23q0 -224 -144 -371t-362 -147q-211 0 -351 139.5t-140 348.5zM238 461q0 -148 93.5 -245t235.5 -97q146 0 241 103t95 261v19q0 145 -90.5 234t-230.5 89q-148 0 -246 -104t-98 -260zM303 1165 q43 69 68 97q66 69 153 69q22 0 43 -6q29 -6 66 -22q26 -13 78 -37q69 -31 100 -31q29 0 50 18.5t52 71.5l103 -63q-53 -89 -102 -126.5t-115 -37.5q-31 0 -64 10q-44 13 -131 57q-58 27 -90 27q-34 0 -58.5 -21t-49.5 -71z" />
<glyph unicode="&#xf6;" horiz-adv-x="1175" d="M72 457q0 218 149 368t367 150q204 0 342.5 -132.5t138.5 -332.5v-23q0 -224 -144 -371t-362 -147q-211 0 -351 139.5t-140 348.5zM238 461q0 -148 93.5 -245t235.5 -97q146 0 241 103t95 261v19q0 145 -90.5 234t-230.5 89q-148 0 -246 -104t-98 -260zM373 1208 q0 46 31.5 78.5t76.5 32.5q41 0 70 -31t29 -74q0 -47 -30.5 -79.5t-74.5 -32.5q-43 0 -72.5 31t-29.5 75zM737 1204q0 46 31 79.5t74 33.5q41 0 72.5 -32t31.5 -73q0 -47 -32 -80.5t-76 -33.5q-43 0 -72 31t-29 75z" />
<glyph unicode="&#xf7;" horiz-adv-x="1632" d="M248 717v164h1444v-164h-1444zM866 438q0 47 33 81t80 34q46 0 79.5 -33.5t33.5 -79.5q0 -47 -33 -80.5t-80 -33.5q-46 0 -79.5 33t-33.5 79zM868 1159q0 46 33 79.5t80 33.5q46 0 79.5 -33t33.5 -80t-33.5 -81t-79.5 -34t-79.5 34.5t-33.5 80.5z" />
<glyph unicode="&#xf8;" horiz-adv-x="3129" d="M205 0v1599l1194 -1253v1190h174v-1606l-1196 1254v-1184h-172zM1671 475q0 209 146.5 354.5t355.5 145.5q142 0 259 -65.5t184 -181t67 -255.5q0 -138 -67 -253.5t-183.5 -182t-255.5 -66.5q-212 0 -359 146t-147 358zM1839 473q0 -152 95 -251t241 -99q148 0 243 99 t95 253t-95 253t-243 99q-146 0 -241 -100t-95 -254zM2699 90q0 49 32.5 82t78.5 33q50 0 82.5 -32.5t32.5 -82.5q0 -47 -33 -80t-80 -33t-80 33t-33 80z" />
<glyph unicode="&#xf9;" horiz-adv-x="1155" d="M115 297q0 64 8 121l63 524h162l-65 -541q-7 -68 -7 -102q0 -79 54 -126.5t145 -47.5q60 0 110.5 23t78.5 63q36 46 49 166l67 565h162l-65 -553q-15 -124 -37 -184.5t-70 -110.5q-52 -57 -130.5 -87t-170.5 -30q-164 0 -259 85.5t-95 234.5zM334 1368l151 90l172 -311 l-100 -57z" />
<glyph unicode="&#xfa;" horiz-adv-x="1155" d="M115 297q0 64 8 121l63 524h162l-65 -541q-7 -68 -7 -102q0 -79 54 -126.5t145 -47.5q60 0 110.5 23t78.5 63q36 46 49 166l67 565h162l-65 -553q-15 -124 -37 -184.5t-70 -110.5q-52 -57 -130.5 -87t-170.5 -30q-164 0 -259 85.5t-95 234.5zM522 1149l246 309l131 -90 l-291 -278z" />
<glyph unicode="&#xfb;" horiz-adv-x="1155" d="M115 297q0 64 8 121l63 524h162l-65 -541q-7 -68 -7 -102q0 -79 54 -126.5t145 -47.5q60 0 110.5 23t78.5 63q36 46 49 166l67 565h162l-65 -553q-15 -124 -37 -184.5t-70 -110.5q-52 -57 -130.5 -87t-170.5 -30q-164 0 -259 85.5t-95 234.5zM311 1176l320 284l243 -284 l-86 -84l-172 198l-225 -200z" />
<glyph unicode="&#xfc;" horiz-adv-x="1155" d="M115 297q0 64 8 121l63 524h162l-65 -541q-7 -68 -7 -102q0 -79 54 -126.5t145 -47.5q60 0 110.5 23t78.5 63q36 46 49 166l67 565h162l-65 -553q-15 -124 -37 -184.5t-70 -110.5q-52 -57 -130.5 -87t-170.5 -30q-164 0 -259 85.5t-95 234.5zM311 1206q0 47 32 80t77 33 q41 0 70.5 -31t29.5 -74q0 -47 -31 -79.5t-75 -32.5q-43 0 -73 30.5t-30 73.5zM676 1204q0 46 30.5 79.5t73.5 33.5q42 0 73.5 -31.5t31.5 -73.5q0 -47 -32 -80.5t-75 -33.5t-72.5 31t-29.5 75z" />
<glyph unicode="&#xfd;" />
<glyph unicode="&#xfe;" />
<glyph unicode="&#xff;" horiz-adv-x="997" d="M31 -526l350 614l-303 842h172l229 -664l375 664h184l-825 -1456h-182zM311 1190q0 46 32.5 78t76.5 32q41 0 70.5 -30.5t29.5 -73.5q0 -46 -31 -77.5t-75 -31.5q-43 0 -73 30t-30 73zM676 1188q0 44 31.5 77t74.5 33q41 0 72 -30.5t31 -71.5q0 -47 -31.5 -80t-75.5 -33 q-43 0 -72.5 30.5t-29.5 74.5z" />
<glyph unicode="&#x152;" horiz-adv-x="2220" d="M125 733q0 238 107.5 429.5t298 299t427.5 107.5q266 0 445 -135q49 -38 87.5 -83t100.5 -137l41 322h768l-22 -158h-592l-60 -473h598l-18 -157h-598l-74 -590h600l-18 -158h-770l33 205q-88 -76 -141.5 -111.5t-125.5 -64.5q-151 -60 -317 -60q-165 0 -308 57.5 t-244.5 158.5t-159.5 243t-58 305zM299 723q0 -172 76 -307.5t211.5 -211t306.5 -75.5q183 0 329.5 85.5t229 238t82.5 342.5q0 177 -75.5 317t-211 218.5t-307.5 78.5q-181 0 -328 -89.5t-230 -246.5t-83 -350z" />
<glyph unicode="&#x153;" horiz-adv-x="1808" d="M70 465q0 220 146.5 365t369.5 145q175 0 303 -94q43 -32 67 -61t58 -87q33 56 56.5 84.5t62.5 59.5q124 98 278 98q195 0 309.5 -131t114.5 -352q0 -37 -2 -62h-748q3 -62 8.5 -91t22.5 -65q31 -69 107 -112t168 -43q163 0 260 141l127 -82q-82 -109 -174 -159t-213 -50 q-142 0 -256 68q-51 31 -80.5 63t-65.5 99q-147 -230 -418 -230q-217 0 -359 140.5t-142 355.5zM236 461q0 -149 94.5 -245.5t240.5 -96.5q151 0 255 105.5t104 260.5q0 150 -96.5 245t-249.5 95q-151 0 -249.5 -103t-98.5 -261zM1098 565h579q-8 125 -77.5 192.5 t-192.5 67.5q-122 0 -202.5 -68t-106.5 -192z" />
<glyph unicode="&#x178;" horiz-adv-x="1273" d="M109 1536h184l319 -674l465 674h199l-602 -854l-84 -682h-170l88 700zM446 1794q0 44 31.5 76.5t75.5 32.5q43 0 71.5 -30.5t28.5 -74.5q0 -46 -30 -77t-74 -31q-43 0 -73 30t-30 74zM811 1794q0 45 31 78t73 33q41 0 73 -31t32 -72q0 -47 -32 -79.5t-77 -32.5 q-43 0 -71.5 30t-28.5 74z" />
<glyph unicode="&#x2c6;" horiz-adv-x="1134" d="M317 1159l320 281l244 -281l-88 -82l-170 195l-228 -197z" />
<glyph unicode="&#x2dc;" horiz-adv-x="1140" d="M227 1149q38 58 70 96q65 68 152 68q24 0 45 -6q28 -6 63 -23q58 -25 80 -35q64 -30 100 -30q28 0 49.5 18t51.5 70l102 -62q-52 -89 -101.5 -125.5t-115.5 -36.5q-34 0 -61 9q-42 12 -132 57q-58 27 -90 27q-34 0 -59.5 -21.5t-48.5 -69.5z" />
<glyph unicode="&#x2000;" horiz-adv-x="1030" />
<glyph unicode="&#x2001;" horiz-adv-x="2060" />
<glyph unicode="&#x2002;" horiz-adv-x="1030" />
<glyph unicode="&#x2003;" horiz-adv-x="2060" />
<glyph unicode="&#x2004;" horiz-adv-x="686" />
<glyph unicode="&#x2005;" horiz-adv-x="515" />
<glyph unicode="&#x2006;" horiz-adv-x="343" />
<glyph unicode="&#x2007;" horiz-adv-x="343" />
<glyph unicode="&#x2008;" horiz-adv-x="257" />
<glyph unicode="&#x2009;" horiz-adv-x="412" />
<glyph unicode="&#x200a;" horiz-adv-x="114" />
<glyph unicode="&#x2010;" horiz-adv-x="370" d="M0 367v125h371v-125h-371z" />
<glyph unicode="&#x2011;" horiz-adv-x="370" d="M0 367v125h371v-125h-371z" />
<glyph unicode="&#x2012;" horiz-adv-x="370" d="M0 367v125h371v-125h-371z" />
<glyph unicode="&#x2013;" horiz-adv-x="1249" d="M145 418v147h768v-147h-768z" />
<glyph unicode="&#x2014;" horiz-adv-x="2412" d="M477 717v164h1444v-164h-1444z" />
<glyph unicode="&#x2018;" horiz-adv-x="397" d="M100 1006l50 530h147l-88 -530h-109z" />
<glyph unicode="&#x2019;" horiz-adv-x="325" d="M100 1006l50 530h147l-88 -530h-109z" />
<glyph unicode="&#x201a;" horiz-adv-x="600" d="M-25 -231l261 485l124 -68l-288 -471z" />
<glyph unicode="&#x201c;" horiz-adv-x="688" d="M100 1534h150l-25 -533h-108zM436 1534h152l-27 -533h-108z" />
<glyph unicode="&#x201d;" horiz-adv-x="690" d="M100 1536h152l-25 -532h-110zM436 1536h154l-27 -532h-110z" />
<glyph unicode="&#x201e;" />
<glyph unicode="&#x2022;" horiz-adv-x="1527" d="M479 784q0 132 92.5 227t221.5 95q133 0 226 -94.5t93 -229.5q0 -132 -92.5 -226.5t-222.5 -94.5q-131 0 -224.5 95t-93.5 228z" />
<glyph unicode="&#x2026;" horiz-adv-x="1835" d="M84 92q0 46 31 77.5t75 31.5t77.5 -32t33.5 -75q0 -47 -33 -79.5t-80 -32.5q-43 0 -73.5 32t-30.5 78zM592 92q0 46 30 77.5t74 31.5q45 0 78 -32t33 -75q0 -47 -32.5 -79.5t-78.5 -32.5q-44 0 -74 32t-30 78zM1098 92q0 46 31 77.5t75 31.5t77.5 -32t33.5 -75 q0 -47 -33 -79.5t-80 -32.5q-43 0 -73.5 32t-30.5 78z" />
<glyph unicode="&#x202f;" horiz-adv-x="412" />
<glyph unicode="&#x2039;" horiz-adv-x="679" d="M63 492l345 432l108 -84l-274 -348l274 -338l-108 -86z" />
<glyph unicode="&#x203a;" horiz-adv-x="679" d="M92 154l275 338l-275 348l107 84l344 -432l-344 -424z" />
<glyph unicode="&#x205f;" horiz-adv-x="515" />
<glyph unicode="&#x20ac;" horiz-adv-x="1652" d="M100 539v166h158q-6 79 4 167h-162v168h205q54 157 172.5 278.5t274 187t321.5 65.5q120 0 220 -36t214 -110l-22 -186q-90 80 -201.5 124t-230.5 44q-177 0 -333.5 -103t-225.5 -264h966l-20 -168h-1000q-10 -55 -6 -167h985l-20 -166h-926q61 -179 227.5 -294.5 t356.5 -115.5q145 0 301 78l-23 -191q-146 -47 -278 -47q-267 0 -473.5 157t-294.5 413h-189z" />
<glyph unicode="&#x2122;" horiz-adv-x="1710" d="M94 1419l15 117h583l-14 -117h-221l-95 -757h-131l95 757h-232zM596 662l399 958l213 -721l394 727l151 -964h-133l-90 589l-361 -653l-190 651l-244 -587h-139z" />
<glyph unicode="&#x25fc;" horiz-adv-x="942" d="M0 0v942h942v-942h-942z" />
<glyph unicode="&#xfb01;" horiz-adv-x="5179" d="M0 -508v2511h4465v-2511h-4465zM199 154q55 -40 89 -58t97 -43q172 -78 344 -78q184 0 329 73t212 196q22 50 36.5 128.5t14.5 151.5q0 89 -22 152t-74 121q-46 50 -108 82t-171 65q-29 11 -57 20.5t-49.5 16t-28.5 8.5q-70 23 -100 53q-35 30 -35 78q0 56 47.5 93.5 t120.5 37.5q134 0 258 -106l158 313q-227 121 -482 121q-232 0 -375 -141.5t-143 -368.5q0 -251 178 -344q71 -37 236 -84q97 -30 134.5 -47.5t68.5 -48.5q30 -27 30 -80q0 -69 -51.5 -110.5t-138.5 -41.5q-175 0 -352 160zM1431 12.5q2 -4.5 7 -4.5h395q3 0 8 4.5t6 10.5 l97 243q3 6 18 6h524q12 0 15 -6l90 -243q11 -15 20 -15h395q11 0 11 15l-572 1505q-3 10 -14 10h-408q-15 0 -18 -10l-573 -1505q-3 -6 -1 -10.5zM2062 588q0 -8 11 -8h305q9 0 6 8l-156 459q-2 9 -4 9t-2 -9zM3019 1200h321v-1192h398v1192h327v334h-1046v-334z" />
<glyph unicode="&#xfb02;" horiz-adv-x="5179" d="M0 -508v2511h4465v-2511h-4465zM199 154q55 -40 89 -58t97 -43q172 -78 344 -78q184 0 329 73t212 196q22 50 36.5 128.5t14.5 151.5q0 89 -22 152t-74 121q-46 50 -108 82t-171 65q-29 11 -57 20.5t-49.5 16t-28.5 8.5q-70 23 -100 53q-35 30 -35 78q0 56 47.5 93.5 t120.5 37.5q134 0 258 -106l158 313q-227 121 -482 121q-232 0 -375 -141.5t-143 -368.5q0 -251 178 -344q71 -37 236 -84q97 -30 134.5 -47.5t68.5 -48.5q30 -27 30 -80q0 -69 -51.5 -110.5t-138.5 -41.5q-175 0 -352 160zM1431 12.5q2 -4.5 7 -4.5h395q3 0 8 4.5t6 10.5 l97 243q3 6 18 6h524q12 0 15 -6l90 -243q11 -15 20 -15h395q11 0 11 15l-572 1505q-3 10 -14 10h-408q-15 0 -18 -10l-573 -1505q-3 -6 -1 -10.5zM2062 588q0 -8 11 -8h305q9 0 6 8l-156 459q-2 9 -4 9t-2 -9zM3019 1200h321v-1192h398v1192h327v334h-1046v-334z" />
</font>
</defs>
</svg>
