<?xml version="1.0" standalone="no"?>
<!DOCTYPE svg PUBLIC "-//W3C//DTD SVG 1.1//EN" "http://www.w3.org/Graphics/SVG/1.1/DTD/svg11.dtd" >
<svg xmlns="http://www.w3.org/2000/svg">
<metadata></metadata>
<defs>
<font id="canalbolditaliqueregular" horiz-adv-x="0" >
<font-face units-per-em="2048" ascent="1638" descent="-410" />
<missing-glyph horiz-adv-x="575" />
<glyph horiz-adv-x="2048" />
<glyph horiz-adv-x="2048" />
<glyph horiz-adv-x="682" />
<glyph unicode="&#xd;" />
<glyph unicode=" "  horiz-adv-x="575" />
<glyph unicode="&#x09;" horiz-adv-x="575" />
<glyph unicode="&#xa0;" horiz-adv-x="575" />
<glyph unicode="!" horiz-adv-x="782" d="M154 195q0 98 68.5 167.5t166.5 69.5q101 0 170.5 -68.5t69.5 -168.5q0 -98 -70 -168t-168 -70q-99 0 -168 69.5t-69 168.5zM197 520v1016h385v-1016h-385z" />
<glyph unicode="&#x22;" horiz-adv-x="1040" d="M104 1536h349l-80 -678h-238zM588 1536h348l-80 -678h-238z" />
<glyph unicode="#" horiz-adv-x="1384" d="M31 422l32 264h228l37 195h-209l33 264h227l76 391h299l-76 -391h168l74 391h303l-76 -391h207l-33 -264h-221l-37 -195h207l-31 -264h-227l-82 -422h-303l82 422h-168l-80 -422h-301l82 422h-211zM590 686h168l39 195h-168z" />
<glyph unicode="$" horiz-adv-x="1384" d="M109 178l165 307q71 -61 116 -89t104 -50q82 -31 149 -31q82 0 136.5 41t54.5 103q0 61 -58 102q-5 2 -18 9.5t-23 11.5q-9 6 -10 6t-39 12l-39 12l-61 19q-209 63 -299 161t-90 259q0 237 165 376q40 32 73.5 50t96.5 39v100h345v-96q86 -13 153 -37q52 -18 139 -70 l-151 -295q-79 56 -144 80q-65 21 -110 21q-75 0 -125.5 -33.5t-50.5 -83.5q0 -68 104 -123l8 -4q13 -6 148 -49q196 -63 288.5 -168t92.5 -264q0 -261 -203 -398q-37 -25 -67 -38.5t-82 -28.5v-117h-345v88q-92 12 -141.5 25t-109.5 41q-50 22 -83.5 43.5t-88.5 68.5z" />
<glyph unicode="%" horiz-adv-x="2258" d="M70 1098q0 186 130 312t322 126q196 0 328.5 -126t132.5 -314q0 -186 -132.5 -314.5t-324.5 -128.5q-193 0 -324.5 128.5t-131.5 316.5zM352 1098q0 -71 51 -122.5t123 -51.5t123 51.5t51 124.5q0 72 -51 123t-123 51t-123 -51.5t-51 -124.5zM512 0l893 1536h338 l-893 -1536h-338zM1276 444q0 186 130 313.5t320 127.5q197 0 330 -127t133 -314t-132 -315.5t-324 -128.5q-193 0 -325 128t-132 316zM1559 446q0 -72 51 -123t123 -51t123 51t51 123t-51 123.5t-123 51.5t-123 -51t-51 -124z" />
<glyph unicode="&#x26;" horiz-adv-x="1787" d="M123 395q0 101 41.5 189t116.5 147q33 25 55 37q48 28 153 78q-64 78 -88 113.5t-39 76.5q-16 54 -16 117q0 184 136 304t343 120t343.5 -119.5t136.5 -300.5q0 -135 -80 -221q-32 -36 -74 -66t-133 -82l196 -200q81 76 222 203l217 -220l-226 -206l345 -365h-496 l-135 139q-101 -63 -159 -91t-144 -54q-109 -35 -220 -35q-221 0 -358 120.5t-137 315.5zM535 461q0 -68 51 -108t137 -40q95 0 199 70l-242 258q-55 -38 -76 -54.5t-39 -39.5q-30 -35 -30 -86zM725 1171q0 -30 18 -65q45 -75 82 -109l6 -6q3 -6 7 -6l6 -6q0 -2 2 -4 q81 52 112 93.5t31 94.5q0 62 -38.5 103t-96.5 41t-93.5 -37t-35.5 -99z" />
<glyph unicode="'" horiz-adv-x="583" d="M104 883l60 653h315l-121 -653h-254z" />
<glyph unicode="(" horiz-adv-x="788" d="M102 801q0 320 93 633q39 129 77 212t123 220l271 -127q-70 -132 -102.5 -209.5t-61.5 -186.5q-72 -267 -72 -552q0 -317 90 -633q29 -99 57 -162.5t89 -169.5l-271 -127q-9 13 -20 31t-18.5 29t-12.5 18q-57 94 -98 198q-65 169 -104.5 393.5t-39.5 432.5z" />
<glyph unicode=")" horiz-adv-x="788" d="M123 -174q71 132 103 209.5t61 185.5q69 255 69 551q0 313 -86 619q-30 106 -57.5 172t-89.5 176l268 127q18 -25 51 -78q60 -96 99 -195q66 -166 104.5 -390.5t40.5 -438.5q0 -317 -94 -633q-37 -125 -75.5 -208.5t-125.5 -223.5z" />
<glyph unicode="*" horiz-adv-x="2629" d="M532 1245l295 301l480 -469l462 471l314 -307l-463 -471l477 -469l-295 -299l-477 467l-459 -469l-313 307l459 469z" />
<glyph unicode="+" horiz-adv-x="2410" d="M379 635v418q0 24 22 24h549q25 0 25 27v473q0 20 20 20h418q25 0 25 -20v-473q0 -17 4 -22t18 -5h549q23 0 23 -26v-420q0 -11 -6.5 -18t-16.5 -7h-543q-18 0 -23 -4.5t-5 -21.5v-551q0 -29 -21 -29h-420q-22 0 -22 25v550q0 31 -27 31h-545q-24 0 -24 29z" />
<glyph unicode="," horiz-adv-x="485" d="M0 -289l74 680h350l-141 -682z" />
<glyph unicode="-" horiz-adv-x="518" d="M0 348v273h518v-273h-518z" />
<glyph unicode="." horiz-adv-x="698" d="M111 193q0 101 69.5 171t169.5 70q98 0 168 -69.5t70 -167.5q0 -100 -70 -170t-170 -70q-97 0 -167 69.5t-70 166.5z" />
<glyph unicode="/" horiz-adv-x="1331" d="M88 -236l840 2038h383l-840 -2038h-383z" />
<glyph unicode="0" horiz-adv-x="1622" d="M160 766q0 243 81 431.5t228.5 292t337.5 103.5q296 0 475.5 -227t179.5 -602q0 -243 -81 -430t-228.5 -289t-339.5 -102q-293 0 -473 226.5t-180 596.5zM557 766q0 -222 68 -347.5t188 -125.5t186 123.5t66 349.5t-65 348.5t-185 122.5q-123 0 -190.5 -123t-67.5 -348z " />
<glyph unicode="1" horiz-adv-x="968" d="M123 1198v338h616v-1536h-399v1198h-217z" />
<glyph unicode="2" horiz-adv-x="1523" d="M129 0l389 408q98 101 174 198q95 114 146 193q94 140 94 262q0 85 -52.5 143t-127.5 58q-74 0 -121 -50q-31 -33 -44.5 -78.5t-13.5 -125.5h-415q6 93 16 143t33 106q67 161 211.5 251.5t333.5 90.5q170 0 305.5 -70.5t212 -196t76.5 -281.5q0 -127 -50 -230.5 t-178 -242.5l-221 -240h465v-338h-1233z" />
<glyph unicode="3" horiz-adv-x="1519" d="M129 492h408q9 -68 22 -100t45 -62q65 -62 154 -62t146 60t57 153q0 100 -58 148.5t-178 48.5q-21 0 -37 -2v268h4h19q95 0 144.5 41t49.5 119q0 77 -41 120.5t-114 43.5q-77 0 -121.5 -47t-48.5 -134h-367q12 87 25.5 135t42.5 103q142 266 489 266q227 0 365.5 -123 t138.5 -325q0 -133 -74 -232q-37 -45 -92 -82q50 -17 74.5 -31t52.5 -40q60 -60 91.5 -143.5t31.5 -178.5q0 -226 -166 -365t-436 -139q-119 0 -211 31t-199 105q-60 41 -94 78.5t-62 93.5q-31 63 -45 133q-10 43 -16 119z" />
<glyph unicode="4" horiz-adv-x="1525" d="M113 315v256l594 965h518v-893h188v-328h-188v-315h-369v315h-743zM510 643h346v543z" />
<glyph unicode="5" horiz-adv-x="1468" d="M160 90l57 340q101 -65 178 -98q116 -49 223 -49q123 0 199 63t76 166q0 107 -97 178.5t-245 71.5q-73 0 -160 -19q-59 -13 -129 -34l133 827h797v-338h-528l-27 -172q4 1 8.5 1.5t7.5 0.5t6.5 0.5t6.5 1.5q65 6 98 6q232 0 387.5 -154t155.5 -384q0 -255 -175 -402 t-477 -147q-130 0 -258 35q-66 19 -112.5 39.5t-124.5 66.5z" />
<glyph unicode="6" horiz-adv-x="1624" d="M160 496q0 132 61.5 286.5t171.5 300.5l342 453h453l-385 -469q35 12 84 12q246 0 410.5 -161t164.5 -402q0 -255 -184.5 -417t-474.5 -162q-186 0 -333 71t-228.5 198.5t-81.5 289.5zM549 506q0 -104 75 -179t179 -75q103 0 177.5 75t74.5 179t-74 179t-178 75 q-106 0 -180 -74t-74 -180z" />
<glyph unicode="7" horiz-adv-x="1458" d="M133 1198v338h1325l-878 -1536h-441l699 1198h-705z" />
<glyph unicode="8" horiz-adv-x="1515" d="M160 416q0 196 133 307q33 29 69.5 46.5t106.5 39.5q-61 30 -91 50t-59 50q-96 99 -96 244q0 195 149.5 316.5t389.5 123.5q238 0 384 -121t146 -319q0 -139 -92 -235q-31 -32 -64.5 -54.5t-99.5 -54.5q71 -22 106.5 -39t69.5 -45q144 -119 144 -311q0 -202 -170 -335.5 t-428 -133.5q-263 0 -430.5 132t-167.5 339zM569 457q0 -75 54.5 -126.5t134.5 -51.5q81 0 134.5 51t53.5 127q0 75 -53.5 125.5t-132.5 50.5q-82 0 -136.5 -50.5t-54.5 -125.5zM584 1147q0 -69 50.5 -116.5t123.5 -47.5q74 0 124 48t50 118q0 68 -50 115t-122 47 q-75 0 -125.5 -47t-50.5 -117z" />
<glyph unicode="9" horiz-adv-x="1622" d="M160 1016q0 170 83 302.5t233.5 205.5t342.5 73q185 0 332 -70.5t229 -197.5t82 -287q0 -133 -62 -290.5t-171 -300.5l-342 -451h-451l369 449h-17h-14l-53 2q-34 2 -94 15t-101 30q-172 65 -269 202t-97 318zM567 1028q0 -104 74 -178t178 -74q106 0 180 73t74 179 q0 104 -74 178t-178 74q-106 0 -180 -74t-74 -178z" />
<glyph unicode=":" horiz-adv-x="843" d="M184 193q0 101 69 171t169 70q99 0 168 -69t69 -168q0 -100 -69 -170t-168 -70q-97 0 -167.5 69.5t-70.5 166.5zM184 881q0 100 69 169.5t169 69.5t168.5 -68.5t68.5 -168.5q0 -99 -69 -168.5t-168 -69.5q-97 0 -167.5 69.5t-70.5 166.5z" />
<glyph unicode=";" horiz-adv-x="899" d="M180 -289l74 680h350l-141 -682zM279 889q0 101 69.5 171t169.5 70q98 0 168 -69.5t70 -167.5q0 -100 -70 -170t-170 -70q-97 0 -167 69.5t-70 166.5z" />
<glyph unicode="&#x3c;" horiz-adv-x="1650" d="M113 768l1384 -809v455l-604 354l604 352v457z" />
<glyph unicode="=" horiz-adv-x="2195" d="M496 365v405h1204v-405h-1204zM496 932v405h1204v-405h-1204z" />
<glyph unicode="&#x3e;" horiz-adv-x="1728" d="M360 -41v455l605 354l-605 352v457l1387 -809z" />
<glyph unicode="?" horiz-adv-x="1282" d="M100 1102q4 212 157.5 344.5t395.5 132.5q146 0 269.5 -64.5t195.5 -175t72 -241.5q0 -97 -44 -186.5t-120 -147.5q-47 -35 -85 -54t-120 -48v-142h-375v393q47 -12 82 -12q115 0 192 58.5t77 146.5q0 64 -44 106.5t-110 42.5q-63 0 -98.5 -39.5t-38.5 -113.5h-406z M408 193q0 101 68.5 170t168.5 69t169 -68.5t69 -168.5q0 -98 -70 -168t-168 -70q-97 0 -167 69.5t-70 166.5z" />
<glyph unicode="@" horiz-adv-x="1953" d="M164 551q0 228 111.5 416t305.5 295.5t429 107.5q162 0 306.5 -55t248.5 -149t164.5 -225.5t60.5 -278.5q0 -148 -60.5 -276.5t-163.5 -204t-223 -75.5q-50 0 -95.5 26.5t-73.5 66.5l-5 6l-10 -12q-94 -91 -231 -91q-160 0 -265.5 120t-105.5 302q0 198 119.5 318.5 t316.5 120.5q71 0 113 -25q69 -47 76 -43l12 49h213l-61 -508q-7 -54 -7 -98q0 -23 6 -31t21 -8q25 0 49 12q78 37 128 133.5t50 212.5q0 226 -166.5 377.5t-416.5 151.5q-174 0 -318.5 -83.5t-227.5 -228.5t-83 -319q0 -173 80 -317t221 -226q138 -82 348 -82q199 0 359 72 l73 33l15 8l20 10l14 6l74 -184q-6 -6 -12 -6q-5 -3 -10.5 -6t-6.5 -4l-12 -4l-53 -27q-187 -94 -459 -94q-273 0 -465 110q-187 107 -295 296.5t-108 410.5zM788 516q0 -86 42 -141.5t108 -55.5q88 0 154.5 76t66.5 174v15q0 69 -52.5 115t-127.5 46q-83 0 -137 -64.5 t-54 -164.5z" />
<glyph unicode="A" horiz-adv-x="1601" d="M-33 0l760 1536h438l373 -1536h-410l-67 281h-535l-129 -281h-430zM670 588h313l-57 268q-5 24 -10.5 47.5t-8.5 36.5t-4 18q-12 72 -20 129q-4 -12 -10.5 -29.5t-8.5 -23.5q-20 -63 -51 -129z" />
<glyph unicode="B" horiz-adv-x="1402" d="M113 0l188 1536h492q227 0 319 -49q78 -41 122 -122.5t44 -188.5q0 -172 -104 -279q-27 -29 -57 -48.5t-91 -49.5q71 -18 108.5 -34.5t71.5 -43.5q105 -83 105 -254q0 -129 -60 -232.5t-172 -166.5q-68 -38 -145 -53t-211 -15h-610zM541 305h102q132 0 202 49.5t70 141.5 q0 145 -219 145h-116zM614 922h134q71 0 116 46t45 119q0 65 -37 103.5t-98 38.5h-123z" />
<glyph unicode="C" horiz-adv-x="1415" d="M125 733q0 172 65.5 326.5t177.5 266t268.5 176.5t330.5 65q179 0 366 -78q51 -22 71.5 -37.5t20.5 -32.5v-6l-36 -301q-3 -26 -5.5 -32.5t-9.5 -6.5q-5 0 -14 6l-23 19q-55 45 -148 72.5t-185 27.5q-209 0 -344.5 -126t-135.5 -320q0 -182 118 -298t302 -116 q94 0 197.5 26t140.5 58q5 8 12 8q9 0 9 -10q0 -8 -3 -23l-28 -334q0 -16 -23 -26q-55 -28 -162.5 -48t-197.5 -20q-219 0 -393.5 98t-272.5 272.5t-98 393.5z" />
<glyph unicode="D" horiz-adv-x="1605" d="M113 0l188 1536h475q187 0 305.5 -29.5t208.5 -97.5q120 -91 187 -246t67 -340q0 -243 -108.5 -442t-290.5 -291q-94 -47 -218 -68.5t-309 -21.5h-505zM545 338h131q128 0 204.5 25.5t133.5 87.5q131 137 131 378q0 191 -85.5 280t-268.5 89h-142z" />
<glyph unicode="E" horiz-adv-x="1126" d="M113 0l188 1536h842l-41 -338h-453l-33 -264h437l-41 -338h-439l-30 -258h471l-43 -338h-858z" />
<glyph unicode="F" horiz-adv-x="1130" d="M113 0l188 1536h877l-43 -338h-486l-33 -260h443l-41 -338h-443l-75 -600h-387z" />
<glyph unicode="G" horiz-adv-x="1746" d="M125 727q0 240 108 431.5t300.5 299t433.5 107.5q323 0 516 -193q50 -48 83.5 -100t84.5 -156l-336 -131q-31 62 -54 94.5t-55 63.5q-105 94 -252 94q-183 0 -307.5 -143t-124.5 -355q0 -191 113 -311.5t291 -120.5q177 0 278 123q33 40 56 119h-355l37 305h735 q-1 -17 -1.5 -38t-1 -35t-1.5 -23q-9 -135 -41 -242q-72 -258 -269 -402.5t-478 -144.5q-222 0 -395 96t-269 268.5t-96 393.5z" />
<glyph unicode="H" horiz-adv-x="1697" d="M113 0l188 1536h389l-69 -559h569l67 559h390l-189 -1536h-389l80 639h-569l-80 -639h-387z" />
<glyph unicode="I" horiz-adv-x="741" d="M113 0l188 1536h389l-188 -1536h-389z" />
<glyph unicode="J" horiz-adv-x="1159" d="M-14 352l321 133q23 -84 54.5 -115.5t91.5 -31.5q66 0 98 46t45 161l121 991h389l-129 -1057q-15 -124 -46.5 -206t-90.5 -148q-135 -156 -361 -156q-219 0 -348 135q-42 44 -72 95t-73 153z" />
<glyph unicode="K" horiz-adv-x="1562" d="M113 0l188 1536h389l-84 -674l508 674h449l-588 -782l524 -754h-467l-330 492q-5 9 -43 71q-47 78 -73 129l-86 -692h-387z" />
<glyph unicode="L" horiz-adv-x="1091" d="M113 0l188 1536h389l-147 -1198h489l-41 -338h-878z" />
<glyph unicode="M" horiz-adv-x="2158" d="M43 0l485 1536h385l117 -518q12 -52 27 -135q27 -150 41 -269q13 39 28 78q3 6 23 51q7 18 15 35t14 30t8 17l362 711h402l49 -1536h-389l-19 688v51q0 55 2 84q2 44 17 170q-12 -31 -27 -71q-62 -144 -82 -181l-377 -741h-204l-134 594q-4 20 -28 147q-21 134 -35 277 q-5 -27 -12.5 -62t-8.5 -43q-27 -125 -61 -247l-197 -666h-401z" />
<glyph unicode="N" horiz-adv-x="1867" d="M113 0l188 1536h420l438 -741l66 -123l59 -119l31 -57q0 49 2 63q3 96 16 201l97 776h387l-189 -1536h-426l-409 688l-66 121q-65 122 -123 260v-70q0 -165 -16 -290l-86 -709h-389z" />
<glyph unicode="O" horiz-adv-x="1857" d="M125 748q0 238 111.5 431t308.5 302.5t442 109.5q238 0 422 -98.5t285.5 -278t101.5 -411.5q0 -185 -63 -344.5t-173.5 -271.5t-266.5 -176t-337 -64q-240 0 -429.5 102t-295.5 284.5t-106 414.5zM522 758q0 -192 122 -317.5t308 -125.5q192 0 319.5 130.5t127.5 328.5 q0 195 -119 322t-301 127q-195 0 -326 -133.5t-131 -331.5z" />
<glyph unicode="P" horiz-adv-x="1384" d="M113 0l188 1536h518q142 0 234 -21.5t161 -70.5q85 -60 131 -159.5t46 -221.5q0 -114 -41.5 -220t-116.5 -186q-83 -86 -191.5 -121.5t-287.5 -35.5h-189l-63 -500h-389zM604 838h123q264 0 264 211q0 95 -54 137.5t-177 42.5h-109z" />
<glyph unicode="Q" horiz-adv-x="1857" d="M125 750q0 177 64.5 329.5t178.5 260t275.5 168.5t349.5 61q238 0 420.5 -95t282.5 -269t100 -400q0 -188 -67 -350q-34 -80 -71 -134.5t-116 -138.5l96 -131l-256 -176l-106 143q-74 -24 -150 -36q-83 -13 -168 -13q-184 0 -339 57.5t-263.5 159.5t-169.5 247t-61 317z M522 758q0 -187 120 -303.5t312 -116.5q30 0 90 8l-133 172l246 176l143 -202q32 41 46 65.5t26 58.5q27 71 27 154q0 193 -116.5 311.5t-305.5 118.5q-198 0 -326.5 -125t-128.5 -317z" />
<glyph unicode="R" horiz-adv-x="1484" d="M113 0l188 1536h500q273 0 407.5 -116t134.5 -351q0 -122 -32.5 -209t-102.5 -153q-36 -35 -75 -57.5t-115 -53.5l377 -596h-453l-367 608l-73 -608h-389zM602 856h70q123 0 199.5 53.5t76.5 141.5q0 75 -58 115t-165 40h-74z" />
<glyph unicode="S" horiz-adv-x="1222" d="M27 139l174 295q106 -72 176.5 -99.5t148.5 -27.5q92 0 148.5 43.5t56.5 112.5q0 51 -35.5 85.5t-142.5 88.5q-207 104 -281.5 197.5t-74.5 248.5q0 209 160.5 346.5t404.5 137.5q224 0 446 -142l-170 -295q-153 115 -270 115q-78 0 -125 -37t-47 -98q0 -31 14 -59 q19 -32 55.5 -57t125.5 -66q191 -90 265 -184.5t74 -247.5q0 -231 -164 -379t-421 -148q-139 0 -252 37t-266 133z" />
<glyph unicode="T" horiz-adv-x="1079" d="M104 1198l41 338h1043l-41 -338h-324l-147 -1198h-389l149 1198h-332z" />
<glyph unicode="U" horiz-adv-x="1677" d="M174 489q0 69 19 218l102 829h387l-102 -829q-1 -8 -5 -64q-2 -25 -2 -53q0 -130 64 -191t201 -61q138 0 203 72t87 249l107 877h389l-108 -889q-26 -214 -64.5 -322t-112.5 -182q-85 -82 -221.5 -128t-300.5 -46q-298 0 -470.5 139.5t-172.5 380.5z" />
<glyph unicode="V" horiz-adv-x="1554" d="M125 1536h414l176 -700q23 -93 31.5 -141.5t15.5 -139.5q5 16 10 30.5t9.5 28.5t6.5 19q13 31 62 133l393 770h436l-823 -1536h-330z" />
<glyph unicode="W" horiz-adv-x="2318" d="M125 1536h391l98 -575q23 -133 31 -209q13 -106 23 -297q47 166 65 213l60 147l290 721h369l113 -659q14 -76 22 -162q10 -84 21 -260q47 164 75 229l48 115l290 737h422l-663 -1536h-437l-104 612q-9 50 -22 168q-11 139 -11 230q-38 -127 -61.5 -193.5t-67.5 -173.5 l-262 -643h-416z" />
<glyph unicode="X" horiz-adv-x="1695" d="M-8 0l670 809l-439 727h451l102 -178q32 -55 58 -109q29 -54 81 -176q10 15 23 35.5t16 24.5q68 103 117 163l186 240h472l-609 -750l477 -786h-448l-139 229q-24 41 -58 107q-44 83 -86 184q-19 -32 -37 -59q-54 -90 -114 -162l-240 -299h-483z" />
<glyph unicode="Y" horiz-adv-x="1435" d="M109 1536h432l104 -246l43 -102q24 -55 57 -158q11 26 23 43q1 3 31 49l22 33l264 381h474l-672 -864l-84 -672h-387l84 684z" />
<glyph unicode="Z" horiz-adv-x="1540" d="M45 0l832 1198h-605l41 338h1235l-821 -1198h688l-41 -338h-1329z" />
<glyph unicode="[" horiz-adv-x="479" d="M59 -352v2042h500v-215h-209v-1612h209v-215h-500z" />
<glyph unicode="\" horiz-adv-x="1716" d="M258 1802h383l840 -2038h-383z" />
<glyph unicode="]" horiz-adv-x="479" d="M-49 -137h209v1610h-209v217h500v-2042h-500v215z" />
<glyph unicode="^" horiz-adv-x="1142" d="M39 776l319 772h484l319 -772h-379l-182 477l-180 -477h-381z" />
<glyph unicode="_" horiz-adv-x="845" d="M164 633v272h518v-272h-518z" />
<glyph unicode="`" horiz-adv-x="1183" d="M311 1509l236 168l289 -354l-168 -125z" />
<glyph unicode="a" horiz-adv-x="1415" d="M74 459q0 174 70 313t193.5 217t278.5 78q108 0 189 -37q39 -18 68.5 -40.5t76.5 -71.5l2 118h379l-127 -1036h-379l27 113q-41 -38 -55 -47q-126 -97 -295 -97q-195 0 -311.5 133.5t-116.5 356.5zM461 487q0 -100 56 -158.5t151 -58.5q103 0 171 79t68 196 q0 104 -53.5 162.5t-148.5 58.5q-104 0 -174 -80t-70 -199z" />
<glyph unicode="b" horiz-adv-x="1417" d="M70 0l188 1536h379l-78 -629q70 67 121 97q103 63 231 63q189 0 307.5 -138t118.5 -358q0 -264 -148.5 -433t-381.5 -169q-121 0 -203 43q-43 21 -73 46.5t-76 80.5l-6 -139h-379zM504 487q0 -100 56 -158.5t151 -58.5q103 0 171 79t68 196q0 104 -53.5 162.5 t-148.5 58.5q-104 0 -174 -80t-70 -199z" />
<glyph unicode="c" horiz-adv-x="968" d="M70 485q0 253 160.5 417.5t408.5 164.5q74 0 145 -14q51 -10 82 -21t84 -37l-39 -323q-56 51 -103.5 72.5t-107.5 21.5q-106 0 -174.5 -77t-68.5 -195q0 -103 57 -163.5t154 -60.5q53 0 97.5 17.5t106.5 62.5l-41 -323q-99 -34 -153 -46t-117 -12q-215 0 -353 145 t-138 371z" />
<glyph unicode="d" horiz-adv-x="1376" d="M68 440q0 174 68.5 318t188.5 226.5t265 82.5q87 0 166 -31q51 -20 85.5 -46.5t88.5 -86.5l76 633h378l-186 -1536h-379l29 123q-59 -50 -60 -51q-130 -103 -301 -103q-189 0 -304 129.5t-115 341.5zM455 487q0 -100 55 -158.5t149 -58.5q104 0 173 79t69 196 q0 104 -54 162.5t-149 58.5q-104 0 -173.5 -80t-69.5 -199z" />
<glyph unicode="e" horiz-adv-x="1284" d="M72 477q0 263 168 426.5t438 163.5q248 0 388 -141t140 -391q0 -25 -6 -95h-768q0 -106 43 -154t137 -48q125 0 146 106h413q-35 -93 -63.5 -139.5t-79.5 -93.5q-154 -142 -424 -142q-249 0 -390.5 135t-141.5 373zM457 657h360q-6 78 -49 119t-121 41q-50 0 -100 -26 q-38 -20 -58 -50t-32 -84z" />
<glyph unicode="f" horiz-adv-x="845" d="M70 743l34 293h160l10 68q18 117 46 186.5t83 124.5q121 121 316 121q53 0 80 -4q74 -10 159 -45l-38 -326q-65 51 -127 51q-66 0 -101 -41.5t-47 -134.5h258l-37 -293h-258l-90 -743h-381l92 743h-159z" />
<glyph unicode="g" horiz-adv-x="1441" d="M55 -96h363q9 -69 59 -105.5t135 -36.5q47 0 92.5 16t73.5 42t43.5 67t24.5 111l14 111q-10 -9 -27.5 -26t-23.5 -24q-106 -90 -252 -90q-207 0 -330 139t-123 375q0 256 146 420t373 164q97 0 178 -35q53 -23 87 -52t85 -93l6 149h379l-111 -911q-22 -194 -67 -334 q-110 -332 -572 -332q-276 0 -418 127q-63 59 -91.5 125t-43.5 193zM492 502q0 -105 56.5 -168.5t151.5 -63.5q98 0 160 76t62 197q0 104 -54 163.5t-149 59.5q-100 0 -163.5 -74t-63.5 -190z" />
<glyph unicode="h" horiz-adv-x="1351" d="M70 0l188 1536h379l-72 -592l74 51q116 72 264 72q161 0 247.5 -94t86.5 -271q0 -52 -14 -174l-64 -528h-381l51 416q5 51 11 69q6 55 6 101q0 164 -139 164q-72 0 -123 -48q-32 -29 -47 -72t-27 -138l-61 -492h-379z" />
<glyph unicode="i" horiz-adv-x="659" d="M70 0l127 1036h378l-126 -1036h-379zM197 1329q0 92 68 158.5t163 66.5q89 0 154 -66t65 -157q0 -98 -65 -165.5t-160 -67.5q-94 0 -159.5 68t-65.5 163z" />
<glyph unicode="j" horiz-adv-x="669" d="M16 -571l197 1607h379l-197 -1607h-379zM203 1329q0 92 68 158.5t163 66.5q89 0 154 -66t65 -157q0 -98 -65 -165.5t-160 -67.5q-92 0 -158.5 68t-66.5 163z" />
<glyph unicode="k" horiz-adv-x="1370" d="M70 0l188 1536h379l-107 -870l330 370h479l-450 -473l483 -563h-465l-151 174q-33 38 -86 102q-53 65 -162 209l-59 -485h-379z" />
<glyph unicode="l" horiz-adv-x="628" d="M70 0l188 1536h379l-188 -1536h-379z" />
<glyph unicode="m" horiz-adv-x="2025" d="M70 0l127 1036h378l-28 -137q63 68 104 96q106 72 250 72q142 0 221 -70q39 -34 78 -108q62 62 117 100q122 78 266 78q149 0 237.5 -81.5t88.5 -219.5q0 -54 -21 -221l-67 -545h-379l63 506q8 78 8 108q0 63 -33.5 99.5t-93.5 36.5q-73 0 -129 -56q-27 -30 -41 -72 t-24 -128l-62 -494h-378l65 541q6 55 6 88q0 56 -32.5 88.5t-90.5 32.5q-83 0 -128 -61.5t-62 -194.5l-61 -494h-379z" />
<glyph unicode="n" horiz-adv-x="1357" d="M70 0l127 1036h378l-30 -135q88 78 137 107q104 59 236 59q157 0 241 -81t84 -232q0 -65 -12 -170l-72 -584h-379l56 457q10 74 10 129q0 78 -36 121t-103 43q-41 0 -79.5 -18.5t-60.5 -49.5q-24 -33 -37.5 -79.5t-23.5 -135.5l-57 -467h-379z" />
<glyph unicode="o" horiz-adv-x="1380" d="M72 514q0 243 176.5 398t451.5 155q269 0 432.5 -144t163.5 -380q0 -256 -168 -415t-440 -159q-275 0 -445.5 151t-170.5 394zM461 487q0 -100 56 -158.5t151 -58.5q104 0 172.5 79t68.5 196q0 104 -53.5 162.5t-148.5 58.5q-105 0 -175.5 -80t-70.5 -199z" />
<glyph unicode="p" horiz-adv-x="1425" d="M16 -537l193 1573h379l-29 -131q99 90 180 126t181 36q196 0 309.5 -134t113.5 -366q0 -270 -134 -434t-355 -164q-118 0 -207 50t-164 159l-88 -715h-379zM510 487q0 -100 55.5 -158.5t149.5 -58.5q104 0 172.5 79t68.5 196q0 104 -53.5 162.5t-148.5 58.5 q-104 0 -174 -80t-70 -199z" />
<glyph unicode="q" horiz-adv-x="1409" d="M70 473q0 267 144.5 430.5t379.5 163.5q98 0 178 -29q48 -18 84 -41.5t90 -74.5v114h381l-192 -1573h-379l75 633q-10 -9 -27 -23t-22 -18q-112 -86 -264 -86q-202 0 -325 138.5t-123 365.5zM459 487q0 -100 54.5 -158.5t148.5 -58.5q101 0 169 79.5t68 197.5 q0 103 -53.5 161t-147.5 58q-102 0 -170.5 -80t-68.5 -199z" />
<glyph unicode="r" horiz-adv-x="935" d="M70 0l127 1036h378l-28 -139q54 49 81 68.5t62 33.5q78 37 199 37q43 0 76 -2l-45 -354q-80 45 -170 45q-103 0 -160 -51q-32 -29 -47 -66q-24 -51 -39 -168l-55 -440h-379z" />
<glyph unicode="s" horiz-adv-x="1050" d="M20 127l138 252q108 -70 176 -95.5t145 -25.5q67 0 104.5 19t37.5 53q0 40 -60 55l-123 29q-144 34 -210 106t-66 195q0 161 121 258.5t321 97.5q184 0 383 -106l-90 -263q-83 51 -137 71t-115 20q-131 0 -131 -64q0 -20 13.5 -31t47.5 -20l123 -33q142 -38 208.5 -108.5 t66.5 -182.5q0 -177 -129.5 -281t-349.5 -104q-128 0 -234.5 35.5t-239.5 122.5z" />
<glyph unicode="t" horiz-adv-x="821" d="M53 743l37 293h162l41 332h379l-39 -332h203l-37 -293h-203l-90 -743h-381l92 743h-164z" />
<glyph unicode="u" horiz-adv-x="1374" d="M117 377q0 49 10 141l63 518h381l-61 -493q-10 -79 -10 -121q0 -66 39 -100.5t114 -34.5q89 0 133.5 48.5t57.5 160.5l65 540h381l-67 -547q-20 -162 -54 -250t-98 -145q-69 -60 -183.5 -92.5t-256.5 -32.5q-246 0 -380 106.5t-134 301.5z" />
<glyph unicode="v" horiz-adv-x="1325" d="M31 1036h395l117 -315q21 -67 28 -90q30 -105 45 -168q23 47 33 65q50 101 117 205l197 303h421l-694 -1036h-258z" />
<glyph unicode="w" horiz-adv-x="1900" d="M31 1036h385l102 -321q20 -68 27 -92q26 -107 33 -148q37 107 100 223l182 338h254l98 -313q4 -13 14 -44.5t15 -51.5q19 -72 29 -129q19 50 22 57q16 40 62 125l200 356h406l-594 -1036h-270l-103 371q-12 46 -18 75q-16 71 -27 156q-5 -14 -12 -32.5t-8 -22.5 q-53 -119 -74 -158l-211 -389h-276z" />
<glyph unicode="x" horiz-adv-x="1423" d="M-61 0l530 549l-373 487h473l78 -121q5 -8 16.5 -25.5t16.5 -25.5q21 -34 49 -94q45 72 70 100l39 45l106 121h494l-490 -499l414 -537h-471l-98 139q-21 30 -41 60q-33 48 -62 102q-4 -6 -37 -47q-58 -74 -108 -127l-121 -127h-485z" />
<glyph unicode="y" horiz-adv-x="1366" d="M31 -537l375 619l-365 954h422l205 -532l325 532h432l-968 -1573h-426z" />
<glyph unicode="z" horiz-adv-x="1343" d="M4 0l635 743h-449l48 293h1087l-629 -741h498l-47 -295h-1143z" />
<glyph unicode="{" horiz-adv-x="630" d="M68 555v250q104 21 116 104l9 54l2 18v385q0 178 70 255t233 77h24l74 -4l76 -2v-260q-11 0 -24 1t-17 1q-90 0 -116 -24.5t-26 -109.5v-28v-314q0 -98 -28 -174q-12 -33 -34 -55.5t-77 -60.5q49 -32 71 -55.5t40 -61.5q28 -64 28 -174v-314v-28q0 -84 25 -107.5 t115 -23.5h43v-260l-76 -2l-74 -2h-22q-165 0 -235 75.5t-70 255.5v385q0 95 -29 140t-98 59z" />
<glyph unicode="|" horiz-adv-x="739" d="M70 0l188 1536h379l-188 -1536h-379z" />
<glyph unicode="}" horiz-adv-x="632" d="M-8 -96h43q89 0 114 23t25 108v28v316q0 96 29 172q12 34 34 57t76 60q-49 32 -70.5 55t-39.5 61q-29 69 -29 174v314v28q0 85 -25 109.5t-114 24.5q-20 0 -43 -2v260l76 2l73 4h25q164 0 233.5 -76.5t69.5 -255.5v-385q0 -95 29.5 -140.5t99.5 -58.5v-250 q-72 -14 -98 -55q-12 -18 -21.5 -53.5t-9.5 -67.5v-385q0 -180 -69.5 -255.5t-235.5 -75.5h-23l-73 2l-76 2v260z" />
<glyph unicode="~" horiz-adv-x="1533" d="M236 1399q4 9 9 22.5t7 16.5q7 16 14 30.5t10.5 22.5t4.5 10q27 58 67 107q91 110 234 110q75 0 241 -61q16 -6 99 -37q52 -18 100 -18q67 0 115 45q18 18 51 75l168 -98q-38 -78 -58.5 -113t-50.5 -71q-45 -56 -114.5 -88.5t-141.5 -32.5q-69 0 -235 61q-15 5 -40 15 t-40.5 15t-26.5 7q-49 17 -82 17q-32 0 -71 -17q-30 -15 -52 -43q-8 -10 -47 -82z" />
<glyph unicode="&#xa1;" horiz-adv-x="2011" d="M205 782l815 813l313 -321l-327 -273h800v-462h-800l327 -269l-313 -319z" />
<glyph unicode="&#xa2;" horiz-adv-x="9531" d="M205 735q0 245 114 440.5t316.5 305.5t456.5 110q183 0 360 -63q82 -29 160 -78q18 -13 18 -29q0 -7 -6 -37l-53 -258q-6 -32 -9 -38.5t-12 -6.5q-12 0 -57 29q-68 42 -165 68t-187 26q-212 0 -344.5 -126.5t-132.5 -327.5q0 -186 116 -307t295 -121q69 0 154 16 q122 24 182 51q12 6 19 6q6 0 6 -18q0 -13 -2 -31l-41 -283q-5 -33 -11 -43q-22 -34 -129 -62t-219 -28q-182 0 -336.5 59t-263 164t-169 255t-60.5 327zM1518 16q0 5 4 17l729 1474q9 19 17 24t30 5h473q15 0 23 -7t12 -26l305 -1476v-9q0 -18 -19 -18h-354q-23 0 -26 20 l-56 216q-1 10 -11 17t-22 7h-499q-18 0 -26 -4.5t-15 -19.5l-103 -211q-12 -25 -49 -25h-399q-14 0 -14 16zM2245 610q0 -6 14 -6h297q20 0 20 8q0 3 -4 19l-104 436q-3 20 -10 20q-4 0 -11 -14l-198 -450q-4 -12 -4 -13zM3295 20q0 7 2 9l199 1480q3 27 35 27h389 q22 0 29.5 -4.5t19.5 -24.5l457 -805q13 -22 20 -22q5 0 8 31l113 794q3 19 10.5 25t28.5 6h362q17 0 22 -4.5t5 -18.5v-6l-205 -1482q-3 -25 -37 -25h-352q-34 0 -49 29l-502 882q-10 21 -16 21q-4 -11 -6 -27l-123 -876q-3 -29 -33 -29h-342q-23 0 -29 3.5t-6 16.5z M4970 10q0 2 1 4.5t2 7t2 7.5l725 1480q9 17 18 22t29 5h450q19 0 26 -5.5t11 -25.5l309 -1472q2 -6 2 -21q0 -12 -24 -12h-350q-19 0 -27.5 6t-11.5 23l-39 198q-4 22 -12 27.5t-31 5.5h-473q-22 0 -29 -3.5t-14 -18.5l-111 -215q-11 -23 -43 -23h-393q-17 0 -17 10z M5687 616q0 -12 27 -12h276q21 0 21 14q0 15 -2 21l-96 448q-8 19 -11 19q-6 -6 -10 -19l-201 -452q-4 -12 -4 -19zM6713 16v11l213 1476q3 19 9 26t18 7h387q14 0 17.5 -3t3.5 -15v-7l-154 -1138v-4q0 -23 22 -23h414q12 0 16.5 -4t4.5 -16v-9l-41 -292q-3 -25 -31 -25 h-860q-19 0 -19 16zM7674 635v418q0 24 22 24h549q25 0 25 27v473q0 20 20 20h418q25 0 25 -20v-473q0 -17 4 -22t18 -5h549q23 0 23 -26v-420q0 -11 -6.5 -18t-16.5 -7h-543q-18 0 -23 -4.5t-5 -21.5v-551q0 -29 -21 -29h-420q-22 0 -22 25v550q0 31 -27 31h-545 q-24 0 -24 29z" />
<glyph unicode="&#xa3;" horiz-adv-x="1292" d="M61 0q28 106 43.5 145.5t51.5 100.5q36 62 80 93t129 56q36 99 36 178q0 17 -6 70h-241l28 234h185q-27 115 -27 210q0 226 148.5 355t408.5 129q241 0 367.5 -118t126.5 -343v-25h-361q-5 101 -40 149t-105 48q-85 0 -129.5 -60t-44.5 -175q0 -66 16 -170h424l-29 -234 h-372q-5 -73 -19 -133q-14 -64 -49 -143l41 -13l57 -20q2 -1 8.5 -3.5t16.5 -6t22 -7.5q71 -26 101 -26q39 0 61 23t31 73h285q-9 -101 -22.5 -151t-47.5 -109q-95 -162 -303 -162q-107 0 -234 51l-108 43q-84 33 -144 33q-40 0 -63.5 -20t-40.5 -72h-281z" />
<glyph unicode="&#xa5;" horiz-adv-x="1556" d="M100 623v335h179q74 273 288.5 443t495.5 170q188 0 348 -78l-49 -406q-135 87 -277 87q-113 0 -216.5 -58.5t-153.5 -157.5h631l-41 -335h-615q38 -117 151.5 -183.5t243.5 -66.5q103 0 193 37l-51 -424q-90 -17 -162 -17q-134 0 -270.5 50t-248 135t-188.5 208.5 t-92 260.5h-166z" />
<glyph unicode="&#xa6;" />
<glyph unicode="&#xa7;" horiz-adv-x="1185" d="M123 674q0 80 29 162q26 66 66.5 108t117.5 88l10 6q0 4 -98 86q-28 22 -48 86.5t-20 132.5q0 158 121.5 260.5t310.5 102.5q101 0 191 -29t153 -82q121 -105 121 -303v-18h-319q0 12 -2 16q-5 75 -39.5 115.5t-95.5 40.5q-54 0 -91.5 -35.5t-37.5 -85.5q0 -29 10 -47 q17 -34 60 -60t159 -73q134 -56 191 -88.5t106 -81.5q106 -103 106 -262q0 -82 -28.5 -162.5t-69.5 -112.5l-131 -102l-4 -8q0 -9 96 -74q32 -23 55 -91t23 -140q0 -108 -60 -198t-164.5 -142t-230.5 -52q-209 0 -332.5 115.5t-123.5 319.5v16h325v-16q0 -79 38 -123.5 t106 -44.5q60 0 100.5 40t40.5 99q0 74 -59 117q-18 13 -42 24.5t-45.5 19t-85.5 29.5q-130 43 -188 72.5t-108 79.5q-113 113 -113 295zM455 680q0 -69 49 -118.5t117 -49.5q69 -1 118 49t49 119t-48 118.5t-117 49.5q-71 0 -119.5 -49t-48.5 -119z" />
<glyph unicode="&#xa8;" horiz-adv-x="1144" d="M315 1399q0 76 55 130t132 54q75 0 129.5 -53.5t54.5 -128.5q0 -80 -52 -134.5t-130 -54.5t-133.5 54.5t-55.5 132.5zM780 1401q0 75 55 128.5t132 53.5q75 0 129.5 -55t54.5 -129q0 -77 -52.5 -131t-127.5 -54q-78 0 -134.5 54.5t-56.5 132.5z" />
<glyph unicode="&#xa9;" horiz-adv-x="1751" d="M98 768q0 162 63.5 310.5t170 256.5t253 172t306.5 64q221 0 405.5 -107t291 -292t106.5 -406q0 -162 -63 -310.5t-169.5 -255.5t-254 -171t-308.5 -64q-163 0 -311 64t-255.5 171.5t-171 256t-63.5 311.5zM258 768q0 -133 50.5 -255t136.5 -210.5t204 -141t248 -52.5 t248 52.5t203 141t135.5 210.5t50.5 255q0 177 -85 329t-229.5 241t-312.5 89q-135 0 -255 -51.5t-206.5 -139.5t-137 -210t-50.5 -258zM430 750q0 137 71 251.5t194 180t270 65.5q69 0 143 -18q46 -10 69.5 -19.5t82.5 -38.5l8 -4l-31 -260l-23 17q-106 77 -225 77 q-123 0 -200.5 -66.5t-77.5 -172.5q0 -101 70 -164t184 -63q113 0 211 53l22 12l-31 -264l-12 -2q-81 -27 -126.5 -36t-100.5 -9q-218 0 -358 130t-140 331z" />
<glyph unicode="&#xaa;" horiz-adv-x="2009" d="M205 539v462h799l-326 273l313 321l813 -813l-813 -831l-313 319l326 269h-799z" />
<glyph unicode="&#xab;" horiz-adv-x="1089" d="M84 526l350 500l205 -141l-256 -359l262 -354l-211 -147zM592 526l350 500l203 -141l-256 -359l262 -354l-209 -147z" />
<glyph unicode="&#xac;" horiz-adv-x="1144" d="M125 303v383h999v-686h-426v303h-573z" />
<glyph unicode="&#xad;" horiz-adv-x="518" d="M0 348v273h518v-273h-518z" />
<glyph unicode="&#xae;" horiz-adv-x="1751" d="M98 768q0 162 63.5 310.5t170 256.5t253 172t306.5 64q221 0 405.5 -107t291 -292t106.5 -406q0 -162 -63 -310.5t-169.5 -255.5t-254 -171t-308.5 -64q-163 0 -311 64t-255.5 171.5t-171 256t-63.5 311.5zM258 768q0 -133 50.5 -255t136.5 -210.5t204 -141t248 -52.5 t248 52.5t203 141t135.5 210.5t50.5 255q0 177 -85 329t-229.5 241t-312.5 89q-135 0 -255 -51.5t-206.5 -139.5t-137 -210t-50.5 -258zM479 307l113 922h326q194 0 276 -82q36 -36 57 -92.5t21 -118.5q0 -100 -49.5 -170t-143.5 -104l244 -355h-322l-210 324l-39 -324h-273 zM815 821h27q78 0 113.5 25.5t35.5 81.5q0 53 -26.5 72.5t-96.5 19.5h-28z" />
<glyph unicode="&#xaf;" horiz-adv-x="1153" d="M178 1229v225h914v-225h-914z" />
<glyph unicode="&#xb0;" horiz-adv-x="1298" d="M457 1249q0 129 89 219.5t218 90.5q127 0 217 -90t90 -218q0 -127 -89.5 -217t-217.5 -90q-126 0 -216.5 90t-90.5 215zM616 1255q0 -63 43 -106t105 -43q60 0 102.5 43t42.5 104q0 60 -43 103t-104 43q-60 0 -103 -42.5t-43 -101.5z" />
<glyph unicode="&#xb1;" />
<glyph unicode="&#xb2;" />
<glyph unicode="&#xb3;" />
<glyph unicode="&#xb4;" horiz-adv-x="897" d="M426 1323l289 354l237 -168l-356 -311z" />
<glyph unicode="&#xb5;" horiz-adv-x="2054" d="M205 786l829 813l815 -813l-321 -313l-273 326v-799h-462v799l-269 -326z" />
<glyph unicode="&#xb6;" horiz-adv-x="1300" d="M131 1120q0 212 133.5 314t413.5 102h737l-26 -227h-170l-187 -1520h-250l187 1520h-162l-186 -1520h-250l116 950h-26q-150 0 -240 104.5t-90 276.5z" />
<glyph unicode="&#xb7;" horiz-adv-x="10405" d="M205 -516v2513h9996v-2513h-9996zM645 735q0 -237 104.5 -419.5t294.5 -283t435 -100.5q206 0 325 72q15 9 20 18t9 41l41 283q2 18 2 31q0 18 -6 18q-7 0 -19 -6q-6 -3 -45 -16q-179 -51 -288 -51q-180 0 -297 121t-117 307q0 201 133.5 327.5t345.5 126.5 q90 0 186.5 -25.5t165.5 -68.5q43 -29 56 -29q9 0 12.5 7t9.5 38l51 256q7 35 7 37q0 17 -19 31q-100 64 -239.5 101.5t-280.5 37.5q-254 0 -456.5 -109.5t-316.5 -304.5t-114 -440zM1958 14q0 -14 16 -14h398q36 0 49 25l102 211q7 15 15 19.5t26 4.5h500q12 0 22 -7.5 t11 -19.5l53 -213q7 -20 28 -20h355q18 0 18 18v9l-305 1476q-4 19 -12 26t-23 7h-473q-22 0 -30 -5t-17 -24l-729 -1474q-4 -12 -4 -19zM2685 610q1 3 2 6.5t2 6.5l199 450q7 14 10 14q7 0 10 -20l105 -436q4 -16 4 -19q0 -8 -21 -8h-297q-14 0 -14 6zM3746 20 q0 -13 6 -16.5t29 -3.5h342q29 0 32 29l123 876q4 27 6 27q3 0 17 -21l502 -882q15 -29 49 -29h350q36 0 39 25l205 1482v6q0 13 -6 18t-21 5h-362q-23 0 -30.5 -6t-10.5 -25l-111 -794q-3 -31 -10 -31q-6 0 -19 22l-458 805q-10 20 -18 24.5t-32 4.5h-389q-30 0 -33 -27 l-200 -1480v-9zM5419 10q0 -10 16 -10h394q31 0 43 23l110 215q7 15 14.5 18.5t28.5 3.5h473q24 0 31 -5.5t12 -27.5l39 -198q3 -17 11.5 -23t27.5 -6h350q25 0 25 12q0 15 -2 21l-309 1472q-5 20 -11 25.5t-26 5.5h-451q-21 0 -29.5 -5t-15.5 -22l-725 -1480q-6 -12 -6 -19 zM6136 616q0 7 4 19l201 452q9 19 12 19q4 0 8 -19l98 -448q0 -3 1 -10.5t1 -10.5q0 -14 -22 -14h-277q-26 0 -26 12zM7164 16q0 -16 18 -16h860q28 0 31 25l41 292v9q0 12 -4 16t-16 4h-412q-25 0 -25 23v4l154 1136v9q0 11 -4 14.5t-16 3.5h-387q-12 0 -18 -7t-9 -26 l-213 -1476v-11zM8129 633q0 -27 24 -27h545q26 0 26 -31v-550q0 -25 23 -25h420q22 0 22 29v551q0 17 5 21.5t22 4.5h508q22 0 22 25v418q0 15 -5 20.5t-17 5.5h-514q-12 0 -16.5 6t-4.5 23v473q0 20 -26 20h-418q-21 0 -21 -20v-473q0 -29 -24 -29h-549q-22 0 -22 -22 v-420z" />
<glyph unicode="&#xb8;" horiz-adv-x="1077" d="M379 -360l244 268l165 -154l-268 -252z" />
<glyph unicode="&#xb9;" />
<glyph unicode="&#xba;" horiz-adv-x="2054" d="M205 813l321 315l273 -327v798h463v-798l268 327l319 -315l-831 -813z" />
<glyph unicode="&#xbb;" horiz-adv-x="1089" d="M113 172l262 354l-256 359l203 141l350 -500l-350 -501zM618 172l265 354l-258 359l204 141l351 -500l-351 -501z" />
<glyph unicode="&#xbc;" />
<glyph unicode="&#xbd;" />
<glyph unicode="&#xbe;" />
<glyph unicode="&#xbf;" horiz-adv-x="1075" d="M123 98q0 177 125 293q44 41 94 69t150 68v146h374v-385h-69q-126 0 -202.5 -56t-76.5 -147q0 -66 43 -110t107 -44q65 0 99 39t42 119h405q-10 -116 -40 -184q-60 -137 -195.5 -216t-312.5 -79q-113 0 -214 38t-173 102.5t-114 155t-42 191.5zM432 993q0 100 69 170 t169 70q99 0 168 -70t69 -170q0 -98 -69 -167.5t-166 -69.5q-101 0 -170.5 68.5t-69.5 168.5z" />
<glyph unicode="&#xc0;" horiz-adv-x="1601" d="M-33 -2l760 1536h127l-14 65h383l123 -512h-72l264 -1089h-410l-67 281h-535l-129 -281h-430zM670 586h313l-57 268q-2 11 -8 35t-7 33l-8 34q-10 59 -20 129q-29 -92 -70 -182z" />
<glyph unicode="&#xc1;" horiz-adv-x="1601" d="M-33 0l760 1536h438l373 -1536h-410l-67 281h-535l-129 -281h-430zM670 588h313l-57 268q-5 24 -10.5 47.5t-8.5 36.5t-4 18q-12 72 -20 129q-4 -12 -10.5 -29.5t-8.5 -23.5q-20 -63 -51 -129zM807 1675l182 379h395l-299 -379h-278z" />
<glyph unicode="&#xc2;" horiz-adv-x="1601" d="M-33 -2h430l129 281h535l67 -281h410l-262 1083l76 2l-125 514h-545l-256 -516h78zM670 586l143 317q64 161 70 182q7 -72 20 -129l8 -34q3 -19 8.5 -41.5t6.5 -26.5l57 -268h-313z" />
<glyph unicode="&#xc3;" horiz-adv-x="1601" d="M-33 0l760 1536h438l373 -1536h-410l-67 281h-535l-129 -281h-430zM475 1683q19 104 29.5 141.5t36.5 92.5q31 67 94 105t143 38q89 0 219 -69q51 -25 72.5 -33t44.5 -8q43 0 64.5 27t25.5 91h252q-9 -99 -21 -147.5t-40 -105.5q-72 -140 -219 -140q-74 0 -168 47l-90 45 q-63 31 -97 31q-41 0 -60 -26t-22 -89h-264zM670 588h313l-57 268q-5 24 -10.5 47.5t-8.5 36.5t-4 18q-12 72 -20 129q-4 -12 -10.5 -29.5t-8.5 -23.5q-20 -63 -51 -129z" />
<glyph unicode="&#xc4;" horiz-adv-x="1601" d="M-33 0l760 1536h438l373 -1536h-410l-67 281h-535l-129 -281h-430zM528 1870q0 82 56.5 138t138.5 56q79 0 137 -57t58 -135q0 -83 -55.5 -140t-137.5 -57q-83 0 -140 56t-57 139zM670 588h313l-57 268q-5 24 -10.5 47.5t-8.5 36.5t-4 18q-12 72 -20 129 q-4 -12 -10.5 -29.5t-8.5 -23.5q-20 -63 -51 -129zM1016 1870q0 78 57.5 134t138.5 56q78 0 135.5 -57t57.5 -135q0 -82 -55 -138.5t-133 -56.5q-83 0 -142 57.5t-59 139.5z" />
<glyph unicode="&#xc5;" horiz-adv-x="1601" d="M-33 0l760 1536h438l373 -1536h-410l-67 281h-535l-129 -281h-430zM655 1876q0 110 85 172.5t233 62.5q140 0 222.5 -63t82.5 -170q0 -109 -82.5 -171t-228.5 -62q-145 0 -228.5 62t-83.5 169zM670 588h313l-57 268q-5 24 -10.5 47.5t-8.5 36.5t-4 18q-12 72 -20 129 q-4 -12 -10.5 -29.5t-8.5 -23.5q-20 -63 -51 -129zM848 1878q0 -41 31.5 -64.5t87.5 -23.5q55 0 86.5 23t31.5 63q0 41 -31 65.5t-85 24.5q-55 0 -88 -24t-33 -64z" />
<glyph unicode="&#xc6;" horiz-adv-x="2123" d="M-33 0l746 1536h964l84 -338h-487l72 -260h466l84 -340h-462l67 -260h477l82 -338h-858l-67 276h-627l-133 -276h-408zM651 582h416l-98 409l-21 82q-12 57 -22 133q-9 -25 -56 -139q-9 -23 -23 -55t-18 -41z" />
<glyph unicode="&#xc7;" horiz-adv-x="1413" d="M125 727q0 139 41.5 267.5t118 231.5t179.5 179.5t231.5 118t267.5 41.5q98 0 183 -18.5t185 -61.5q52 -21 72 -36.5t20 -33.5v-6l-37 -299q-3 -27 -5.5 -34t-8.5 -7q-5 0 -14 6l-23 19q-55 45 -149.5 74.5t-181.5 29.5q-212 0 -347 -126t-135 -324q0 -185 120 -297.5 t316 -112.5q88 0 178 25t142 65q9 6 14 6q8 0 8 -10v-4v-19l-43 -338q-2 -12 -10 -19.5t-30 -14.5l-27 -11q-98 -40 -201 -47l-16 -118h-305l16 141q-257 65 -408 262.5t-151 470.5z" />
<glyph unicode="&#xc8;" horiz-adv-x="1126" d="M113 0l188 1536h135l-47 63h572l47 -63h135l-41 -338h-453l-33 -264h437l-41 -338h-439l-30 -258h471l-43 -338h-858z" />
<glyph unicode="&#xc9;" horiz-adv-x="1126" d="M113 0l188 1536h135l45 63h574l-47 -63h135l-41 -338h-453l-33 -264h437l-41 -338h-439l-30 -258h471l-43 -338h-858z" />
<glyph unicode="&#xca;" horiz-adv-x="1126" d="M113 0l188 1536h135l45 63h459l45 -63h158l-41 -338h-453l-33 -264h437l-41 -338h-439l-30 -258h471l-43 -338h-858z" />
<glyph unicode="&#xcb;" horiz-adv-x="1128" d="M113 -2h860l45 338h-475l32 258h439l43 340h-439l33 266h453l41 334h-96l8 65l-250 -2l-8 -63h-131l8 63l-238 2l-8 -65h-129z" />
<glyph unicode="&#xcc;" horiz-adv-x="741" d="M113 0h389l188 1536h-389zM178 2054l205 -379h281l-91 379h-395z" />
<glyph unicode="&#xcd;" horiz-adv-x="636" d="M133 0l115 938h399l-115 -938h-399zM272 1137l50 399h399l-49 -399h-400z" />
<glyph unicode="&#xce;" horiz-adv-x="874" d="M113 -2l172 1407h389l-172 -1407h-389zM172 1470h651l-28 129h-564z" />
<glyph unicode="&#xcf;" horiz-adv-x="825" d="M113 -2l172 1407h389l-172 -1407h-389zM211 1468h219l16 129h-219zM539 1468h219l16 129h-219z" />
<glyph unicode="&#xd0;" />
<glyph unicode="&#xd1;" horiz-adv-x="1867" d="M113 0l188 1536h420l438 -741l66 -123l59 -119l31 -57q0 49 2 63q3 96 16 201l97 776h387l-189 -1536h-426l-409 688q-27 44 -66 121q-65 122 -123 260v-70q0 -165 -16 -290l-86 -709h-389zM934 1536h319l-28 -233q-14 -117 -17 -201q-2 -14 -2 -64l-30 58l-60 118 l-65 123z" />
<glyph unicode="&#xd2;" horiz-adv-x="1859" d="M125 748q0 238 110.5 424.5t309 290.5t450.5 104q231 0 413.5 -90.5t286 -255t103.5 -375.5v-29q0 -252 -103.5 -444.5t-293.5 -298t-438 -105.5q-185 0 -341 57t-265 158.5t-170.5 246.5t-61.5 317zM524 760q0 -189 119.5 -305.5t312.5 -116.5q194 0 319.5 121.5 t125.5 308.5q0 5 -1 17t-1 18q-13 184 -125.5 289.5t-294.5 105.5q-198 0 -326.5 -123.5t-128.5 -314.5zM739 2054h396l90 -379h-279z" />
<glyph unicode="&#xd3;" horiz-adv-x="1859" d="M125 748q0 238 110.5 424.5t309 290.5t450.5 104q231 0 413.5 -90.5t286 -255t103.5 -375.5v-29q0 -252 -103.5 -444.5t-293.5 -298t-438 -105.5q-185 0 -341 57t-265 158.5t-170.5 246.5t-61.5 317zM524 760q0 -189 119.5 -305.5t312.5 -116.5q194 0 319.5 121.5 t125.5 308.5q0 5 -1 17t-1 18q-13 184 -125.5 289.5t-294.5 105.5q-198 0 -326.5 -123.5t-128.5 -314.5zM907 1675l185 379h395l-299 -379h-281z" />
<glyph unicode="&#xd4;" horiz-adv-x="1845" d="M125 748q0 363 250 604q105 97 221 151l29 56q172 75 372 75q210 0 377 -78l17 -63q97 -51 172 -123q221 -218 221 -567q0 -371 -230 -610q-237 -240 -604 -240q-358 0 -590 215q-235 223 -235 580zM518 758q0 -139 70 -246q121 -195 358 -195q192 0 318 132 q127 133 127 325q0 134 -66 248q-117 197 -352 197q-192 0 -326 -134q-129 -132 -129 -327z" />
<glyph unicode="&#xd5;" horiz-adv-x="1859" d="M125 748q0 238 110.5 424.5t309 290.5t450.5 104q231 0 413.5 -90.5t286 -255t103.5 -375.5v-29q0 -252 -103.5 -444.5t-293.5 -298t-438 -105.5q-185 0 -341 57t-265 158.5t-170.5 246.5t-61.5 317zM524 760q0 -189 119.5 -305.5t312.5 -116.5q194 0 319.5 121.5 t125.5 308.5q0 5 -1 17t-1 18q-13 184 -125.5 289.5t-294.5 105.5q-198 0 -326.5 -123.5t-128.5 -314.5zM608 1683q19 104 29.5 141.5t36.5 92.5q32 67 94.5 105t140.5 38q89 0 221 -69q52 -26 72.5 -33.5t42.5 -7.5q44 0 65 27t27 91h252q-9 -99 -21 -147.5t-40 -105.5 q-72 -140 -219 -140q-71 0 -168 47l-92 45q-61 31 -97 31q-40 0 -59 -26t-23 -89h-262z" />
<glyph unicode="&#xd6;" horiz-adv-x="1859" d="M125 748q0 238 110.5 424.5t309 290.5t450.5 104q231 0 413.5 -90.5t286 -255t103.5 -375.5v-29q0 -252 -103.5 -444.5t-293.5 -298t-438 -105.5q-185 0 -341 57t-265 158.5t-170.5 246.5t-61.5 317zM524 760q0 -189 119.5 -305.5t312.5 -116.5q194 0 319.5 121.5 t125.5 308.5q0 5 -1 17t-1 18q-13 184 -125.5 289.5t-294.5 105.5q-198 0 -326.5 -123.5t-128.5 -314.5zM659 1870q0 82 56.5 138t138.5 56q79 0 137 -57t58 -135q0 -83 -54.5 -140t-136.5 -57q-85 0 -142 56t-57 139zM1149 1870q0 78 56.5 134t137.5 56q78 0 136.5 -57 t58.5 -135q0 -81 -56 -138t-134 -57q-83 0 -141 57.5t-58 139.5z" />
<glyph unicode="&#xd7;" />
<glyph unicode="&#xd8;" horiz-adv-x="1462" d="M205 0v1536h880v-338h-481v-256h438v-338h-438v-604h-399zM864 193q0 101 69 171t169 70q99 0 168 -69t69 -168q0 -100 -69.5 -170t-167.5 -70q-97 0 -167.5 69.5t-70.5 166.5z" />
<glyph unicode="&#xd9;" horiz-adv-x="1677" d="M186 498q0 57 19 215l100 821h383l-100 -821q-6 -49 -6 -95v-22q0 -250 262 -250q136 0 201 73t85 247l107 868h84l6 65h381l-61 -512h-78l-53 -434q-19 -162 -48 -266q-44 -151 -129 -233q-178 -172 -516 -172q-272 0 -442 118q-195 139 -195 398z" />
<glyph unicode="&#xda;" horiz-adv-x="1677" d="M174 496q0 62 19 211l100 829h389l-100 -829q-11 -83 -11 -127q0 -123 63.5 -182.5t192.5 -59.5q148 0 217 78q36 39 54 91t30 155l107 874h389l-108 -889q-28 -220 -64.5 -326t-110.5 -180q-85 -83 -221 -127.5t-305 -44.5q-287 0 -446 119q-91 67 -143 176.5t-52 231.5 zM811 1675l182 379h396l-299 -379h-279z" />
<glyph unicode="&#xdb;" horiz-adv-x="1677" d="M180 487q0 60 19 215l84 697h385l-86 -697q-7 -54 -7 -92v-22q0 -250 263 -250q136 0 202 72.5t86 244.5l91 744h385l-93 -754q-21 -178 -45 -268q-43 -149 -129 -232q-177 -174 -518 -174q-268 0 -442 121q-195 139 -195 395zM631 1460h645l-43 129h-557z" />
<glyph unicode="&#xdc;" horiz-adv-x="1677" d="M178 487q0 60 19 215l86 695h383l-84 -695q-7 -54 -7 -92v-22q0 -250 263 -250q136 0 201 72.5t85 246.5l90 740h388l-93 -752q-19 -168 -47 -266q-44 -152 -129 -234q-177 -174 -516 -174q-271 0 -442 121q-197 138 -197 395zM289 1462l14 127h385l-16 -127h-383z M1221 1462l14 127h387l-16 -127h-385z" />
<glyph unicode="&#xdd;" />
<glyph unicode="&#xde;" />
<glyph unicode="&#xdf;" horiz-adv-x="1437" d="M113 0l139 1130q15 127 32 195t48 131q60 120 181 185t284 65q243 0 387.5 -123t144.5 -330q0 -152 -88 -260q-37 -45 -74 -69t-110 -52q69 -26 102.5 -44t65.5 -46q121 -109 121 -311q0 -200 -125 -328q-84 -87 -185 -114q-61 -19 -122 -24t-214 -5h-100l41 326 q43 -4 86 -4q110 0 170.5 52.5t60.5 149.5q0 91 -50 139t-146 48q-6 0 -15.5 -0.5t-26.5 -1.5t-32 -2l43 342q13 -1 30 -3t23 -2q84 0 135.5 49.5t51.5 129.5q0 77 -43.5 122.5t-116.5 45.5q-78 0 -118.5 -47t-53.5 -154l-147 -1190h-379z" />
<glyph unicode="&#xe0;" horiz-adv-x="1415" d="M74 459q0 174 70 313t193.5 217t278.5 78q108 0 189 -37q39 -18 68.5 -40.5t76.5 -71.5l2 118h379l-127 -1036h-379l27 113q-41 -38 -55 -47q-126 -97 -295 -97q-195 0 -311.5 133.5t-116.5 356.5zM455 1620h379l88 -397h-260zM461 487q0 -100 56 -158.5t151 -58.5 q103 0 171 79t68 196q0 104 -53.5 162.5t-148.5 58.5q-104 0 -174 -80t-70 -199z" />
<glyph unicode="&#xe1;" horiz-adv-x="1415" d="M74 459q0 174 70 313t193.5 217t278.5 78q108 0 189 -37q39 -18 68.5 -40.5t76.5 -71.5l2 118h379l-127 -1036h-379l27 113q-41 -38 -55 -47q-126 -97 -295 -97q-195 0 -311.5 133.5t-116.5 356.5zM461 487q0 -100 56 -158.5t151 -58.5q103 0 171 79t68 196 q0 104 -53.5 162.5t-148.5 58.5q-104 0 -174 -80t-70 -199zM653 1223l185 397h379l-306 -397h-258z" />
<glyph unicode="&#xe2;" horiz-adv-x="1415" d="M74 459q0 174 70 313t193.5 217t278.5 78q108 0 189 -37q39 -18 68.5 -40.5t76.5 -71.5l2 118h379l-127 -1036h-379l27 113q-41 -38 -55 -47q-126 -97 -295 -97q-195 0 -311.5 133.5t-116.5 356.5zM383 1223l254 401h420l135 -401h-293l-84 198l-129 -198h-303zM461 487 q0 -100 56 -158.5t151 -58.5q103 0 171 79t68 196q0 104 -53.5 162.5t-148.5 58.5q-104 0 -174 -80t-70 -199z" />
<glyph unicode="&#xe3;" horiz-adv-x="1415" d="M74 459q0 174 70 313t193.5 217t278.5 78q108 0 189 -37q39 -18 68.5 -40.5t76.5 -71.5l2 118h379l-127 -1036h-379l27 113q-41 -38 -55 -47q-126 -97 -295 -97q-195 0 -311.5 133.5t-116.5 356.5zM344 1231q1 8 3.5 20.5t4 21.5l2.5 15q25 147 84 217q73 86 191 86 q89 0 211 -65q48 -25 67.5 -32t42.5 -7q42 0 62 25t24 85h240q-9 -100 -19.5 -146t-37.5 -99q-63 -129 -207 -129q-51 0 -92 14q-35 11 -156 74q-59 30 -92 30q-39 0 -57 -25.5t-21 -84.5h-250zM461 487q0 -100 56 -158.5t151 -58.5q103 0 171 79t68 196q0 104 -53.5 162.5 t-148.5 58.5q-104 0 -174 -80t-70 -199z" />
<glyph unicode="&#xe4;" horiz-adv-x="1415" d="M74 459q0 174 70 313t193.5 217t278.5 78q108 0 189 -37q39 -18 68.5 -40.5t76.5 -71.5l2 118h379l-127 -1036h-379l27 113q-41 -38 -55 -47q-126 -97 -295 -97q-195 0 -311.5 133.5t-116.5 356.5zM393 1409q0 78 54 132t131 54q76 0 131 -54.5t55 -129.5 q0 -79 -52.5 -133.5t-129.5 -54.5q-79 0 -134 54t-55 132zM461 487q0 -100 56 -158.5t151 -58.5q103 0 171 79t68 196q0 104 -53.5 162.5t-148.5 58.5q-104 0 -174 -80t-70 -199zM858 1409q0 76 54.5 130t131.5 54q74 0 129.5 -55.5t55.5 -128.5q0 -78 -52.5 -132 t-127.5 -54q-79 0 -135 54.5t-56 131.5z" />
<glyph unicode="&#xe5;" horiz-adv-x="1415" d="M74 459q0 174 70 313t193.5 217t278.5 78q108 0 189 -37q39 -18 68.5 -40.5t76.5 -71.5l2 118h379l-127 -1036h-379l27 113q-41 -38 -55 -47q-126 -97 -295 -97q-195 0 -311.5 133.5t-116.5 356.5zM461 487q0 -100 56 -158.5t151 -58.5q103 0 171 79t68 196 q0 104 -53.5 162.5t-148.5 58.5q-104 0 -174 -80t-70 -199zM512 1450q0 107 82 168t225 61q138 0 218.5 -61.5t80.5 -167.5t-81 -166.5t-222 -60.5q-140 0 -221.5 61t-81.5 166zM700 1450q0 -40 30.5 -62t84.5 -22t84.5 22t30.5 62t-30.5 63t-84.5 23q-53 0 -84 -23t-31 -63 z" />
<glyph unicode="&#xe6;" horiz-adv-x="1988" d="M72 309q0 149 111 240.5t294 91.5q123 0 223 -43q49 -18 97 -55q0 57 4 88v41q0 69 -60 108t-168 39q-62 0 -147 -20q-44 -10 -164 -58l19 275q218 51 372 51q141 0 250 -47q41 -18 65.5 -34t61.5 -50q43 36 71.5 53t72.5 35q107 43 233 43q249 0 376.5 -145.5 t127.5 -429.5v-35h-768v-6q0 -100 51 -156.5t143 -56.5q60 0 107 25.5t69 68.5h367q-31 -99 -64 -149.5t-102 -102.5q-149 -111 -379 -111q-173 0 -282 56q-34 18 -56 35t-53 51q-191 -142 -436 -142q-203 0 -319.5 91t-116.5 249zM412 307q0 -49 46.5 -78.5t123.5 -29.5 q73 0 117 28.5t44 75.5v4q0 47 -46.5 74t-123.5 27q-73 0 -117 -27.5t-44 -73.5zM1178 674h389q-13 78 -59 114.5t-128 36.5q-85 0 -133.5 -36.5t-68.5 -114.5z" />
<glyph unicode="&#xe7;" horiz-adv-x="968" d="M70 485q0 253 160.5 417.5t408.5 164.5q74 0 145 -14q51 -10 82 -21t84 -37l-39 -323q-56 51 -103.5 72.5t-107.5 21.5q-106 0 -174.5 -77t-68.5 -195q0 -103 57 -163.5t154 -60.5q53 0 97.5 17.5t106.5 62.5l-41 -323q-59 -21 -143 -43l-12 -90h-238l11 83 q-70 18 -123 48q-125 69 -190.5 187t-65.5 273z" />
<glyph unicode="&#xe8;" horiz-adv-x="1284" d="M72 477q0 263 168 426.5t438 163.5q248 0 388 -141t140 -391q0 -25 -6 -95h-768q0 -106 43 -154t137 -48q125 0 146 106h413q-35 -93 -63.5 -139.5t-79.5 -93.5q-154 -142 -424 -142q-249 0 -390.5 135t-141.5 373zM391 1620h379l88 -397h-260zM457 657h360 q-6 78 -49 119t-121 41q-50 0 -100 -26q-38 -20 -58 -50t-32 -84z" />
<glyph unicode="&#xe9;" horiz-adv-x="1284" d="M72 477q0 263 168 426.5t438 163.5q248 0 388 -141t140 -391q0 -25 -6 -95h-768q0 -106 43 -154t137 -48q125 0 146 106h413q-35 -93 -63.5 -139.5t-79.5 -93.5q-154 -142 -424 -142q-249 0 -390.5 135t-141.5 373zM457 657h360q-6 78 -49 119t-121 41q-50 0 -100 -26 q-38 -20 -58 -50t-32 -84zM590 1223l184 397h379l-305 -397h-258z" />
<glyph unicode="&#xea;" horiz-adv-x="1284" d="M72 477q0 263 168 426.5t438 163.5q248 0 388 -141t140 -391q0 -25 -6 -95h-768q0 -106 43 -154t137 -48q125 0 146 106h413q-35 -93 -63.5 -139.5t-79.5 -93.5q-154 -142 -424 -142q-249 0 -390.5 135t-141.5 373zM317 1223l256 401h420l135 -401h-292l-84 198 l-129 -198h-306zM457 657h360q-6 78 -49 119t-121 41q-50 0 -100 -26q-38 -20 -58 -50t-32 -84z" />
<glyph unicode="&#xeb;" horiz-adv-x="1284" d="M72 477q0 263 168 426.5t438 163.5q248 0 388 -141t140 -391q0 -25 -6 -95h-768q0 -106 43 -154t137 -48q125 0 146 106h413q-35 -93 -63.5 -139.5t-79.5 -93.5q-154 -142 -424 -142q-249 0 -390.5 135t-141.5 373zM330 1409q0 78 53.5 132t130.5 54q75 0 130.5 -54.5 t55.5 -129.5q0 -79 -52.5 -133.5t-129.5 -54.5q-79 0 -133.5 54t-54.5 132zM457 657h360q-6 78 -49 119t-121 41q-50 0 -100 -26q-38 -20 -58 -50t-32 -84zM795 1409q0 77 53.5 130.5t130.5 53.5q75 0 130.5 -54.5t55.5 -129.5q0 -78 -53 -132t-127 -54q-79 0 -134.5 54.5 t-55.5 131.5z" />
<glyph unicode="&#xec;" horiz-adv-x="477" d="M-41 0l127 1036h379l-127 -1036h-379zM-35 1620h379l88 -397h-260z" />
<glyph unicode="&#xed;" horiz-adv-x="796" d="M70 0l127 1036h378l-126 -1036h-379zM274 1223l185 397h379l-306 -397h-258z" />
<glyph unicode="&#xee;" horiz-adv-x="890" d="M70 1223l254 401h419l136 -401h-293l-84 198l-129 -198h-303zM135 0l127 1036h379l-127 -1036h-379z" />
<glyph unicode="&#xef;" horiz-adv-x="641" d="M-82 1409q0 77 54 131.5t130 54.5t131.5 -54.5t55.5 -129.5q0 -79 -53 -133.5t-130 -54.5q-79 0 -133.5 54t-54.5 132zM-43 0l127 1036h381l-127 -1036h-381zM352 1409q0 76 54 130t131 54q75 0 130.5 -55t55.5 -129q0 -78 -53 -132t-127 -54q-79 0 -135 54.5t-56 131.5z " />
<glyph unicode="&#xf0;" />
<glyph unicode="&#xf1;" horiz-adv-x="1366" d="M70 0l127 1036h378l-30 -135q88 78 137 107q104 59 236 59q157 0 241 -81t84 -232q0 -65 -12 -170l-72 -584h-379l56 457q10 74 10 129q0 78 -36 121t-103 43q-41 0 -79.5 -18.5t-60.5 -49.5q-24 -33 -37.5 -79.5t-23.5 -135.5l-57 -467h-379zM319 1231q2 11 6 30.5 t5 26.5q25 147 84 217q73 86 192 86q90 0 209 -65q74 -39 111 -39q42 0 62 25t24 85h239q-9 -100 -19.5 -146t-37.5 -99q-63 -129 -207 -129q-51 0 -92 14q-26 9 -156 74q-59 30 -92 30q-39 0 -57 -25.5t-21 -84.5h-250z" />
<glyph unicode="&#xf2;" horiz-adv-x="1380" d="M72 514q0 243 176.5 398t451.5 155q269 0 432.5 -144t163.5 -380q0 -256 -168 -415t-440 -159q-275 0 -445.5 151t-170.5 394zM438 1620h379l88 -397h-260zM461 487q0 -100 56 -158.5t151 -58.5q104 0 172.5 79t68.5 196q0 104 -53.5 162.5t-148.5 58.5 q-105 0 -175.5 -80t-70.5 -199z" />
<glyph unicode="&#xf3;" horiz-adv-x="1380" d="M72 514q0 243 176.5 398t451.5 155q269 0 432.5 -144t163.5 -380q0 -256 -168 -415t-440 -159q-275 0 -445.5 151t-170.5 394zM461 487q0 -100 56 -158.5t151 -58.5q104 0 172.5 79t68.5 196q0 104 -53.5 162.5t-148.5 58.5q-105 0 -175.5 -80t-70.5 -199zM635 1223 l184 397h381l-305 -397h-260z" />
<glyph unicode="&#xf4;" horiz-adv-x="1380" d="M72 514q0 243 176.5 398t451.5 155q269 0 432.5 -144t163.5 -380q0 -256 -168 -415t-440 -159q-275 0 -445.5 151t-170.5 394zM365 1223l256 401h417l138 -401h-293l-84 198l-129 -198h-305zM461 487q0 -100 56 -158.5t151 -58.5q104 0 172.5 79t68.5 196 q0 104 -53.5 162.5t-148.5 58.5q-105 0 -175.5 -80t-70.5 -199z" />
<glyph unicode="&#xf5;" horiz-adv-x="1380" d="M72 514q0 243 176.5 398t451.5 155q269 0 432.5 -144t163.5 -380q0 -256 -168 -415t-440 -159q-275 0 -445.5 151t-170.5 394zM328 1231q1 8 2.5 21t3 21.5t4.5 14.5q27 153 82 217q71 86 192 86q89 0 211 -65q45 -24 66 -31.5t45 -7.5q42 0 62 25t24 85h240 q-11 -102 -21.5 -147.5t-36.5 -97.5q-63 -129 -207 -129q-54 0 -92 14q-28 9 -158 74q-56 30 -90 30q-40 0 -57 -25t-20 -85h-250zM461 487q0 -100 56 -158.5t151 -58.5q104 0 172.5 79t68.5 196q0 104 -53.5 162.5t-148.5 58.5q-105 0 -175.5 -80t-70.5 -199z" />
<glyph unicode="&#xf6;" horiz-adv-x="1380" d="M72 514q0 243 176.5 398t451.5 155q269 0 432.5 -144t163.5 -380q0 -256 -168 -415t-440 -159q-275 0 -445.5 151t-170.5 394zM377 1409q0 77 54 131.5t130 54.5q75 0 129.5 -54.5t54.5 -129.5q0 -80 -52 -134t-128 -54q-79 0 -133.5 54t-54.5 132zM461 487 q0 -100 56 -158.5t151 -58.5q104 0 172.5 79t68.5 196q0 104 -53.5 162.5t-148.5 58.5q-105 0 -175.5 -80t-70.5 -199zM842 1409q0 77 54 130.5t130 53.5q75 0 129.5 -55t54.5 -129q0 -78 -52.5 -132t-127.5 -54q-78 0 -133 54.5t-55 131.5z" />
<glyph unicode="&#xf7;" horiz-adv-x="1632" d="M143 606v471h1436v-471h-1436zM649 283q0 87 61 149t146 62q88 0 148.5 -61t60.5 -150q0 -88 -60.5 -149.5t-146.5 -61.5t-147.5 61.5t-61.5 149.5zM651 1399q0 86 61 148.5t146 62.5q88 0 148.5 -61.5t60.5 -149.5t-60.5 -149.5t-146.5 -61.5t-147.5 61.5t-61.5 149.5z " />
<glyph unicode="&#xf8;" horiz-adv-x="3831" d="M225 0v1536h400l733 -940v940h399v-1536h-399l-733 938v-938h-400zM1870 569q0 167 81.5 305t224 217.5t314.5 79.5q133 0 251 -46.5t202 -127t133 -192.5t49 -238q0 -168 -83 -308t-227.5 -220t-317.5 -80t-317 80t-227 220.5t-83 309.5zM2259 571q0 -99 69.5 -169 t168.5 -70q100 0 169.5 69.5t69.5 169.5q0 99 -69.5 169.5t-167.5 70.5q-101 0 -170.5 -70t-69.5 -170zM3150 195q0 98 70.5 167.5t168.5 69.5q100 0 169 -68.5t69 -168.5q0 -98 -69 -168t-167 -70q-101 0 -171 69.5t-70 168.5z" />
<glyph unicode="&#xf9;" horiz-adv-x="1374" d="M117 377q0 49 10 141l63 518h381l-61 -493q-10 -79 -10 -121q0 -66 39 -100.5t114 -34.5q89 0 133.5 48.5t57.5 160.5l65 540h381l-67 -547q-20 -162 -54 -250t-98 -145q-69 -60 -183.5 -92.5t-256.5 -32.5q-246 0 -380 106.5t-134 301.5zM430 1620h381l86 -397h-260z " />
<glyph unicode="&#xfa;" horiz-adv-x="1374" d="M117 377q0 49 10 141l63 518h381l-61 -493q-10 -79 -10 -121q0 -66 39 -100.5t114 -34.5q89 0 133.5 48.5t57.5 160.5l65 540h381l-67 -547q-20 -162 -54 -250t-98 -145q-69 -60 -183.5 -92.5t-256.5 -32.5q-246 0 -380 106.5t-134 301.5zM629 1223l184 397h379 l-303 -397h-260z" />
<glyph unicode="&#xfb;" horiz-adv-x="1374" d="M117 377q0 49 10 141l63 518h381l-61 -493q-10 -79 -10 -121q0 -66 39 -100.5t114 -34.5q89 0 133.5 48.5t57.5 160.5l65 540h381l-67 -547q-20 -162 -54 -250t-98 -145q-69 -60 -183.5 -92.5t-256.5 -32.5q-246 0 -380 106.5t-134 301.5zM358 1223l256 401h418l135 -401 h-293l-83 198l-129 -198h-304z" />
<glyph unicode="&#xfc;" horiz-adv-x="1374" d="M117 377q0 49 10 141l63 518h381l-61 -493q-10 -79 -10 -121q0 -66 39 -100.5t114 -34.5q89 0 133.5 48.5t57.5 160.5l65 540h381l-67 -547q-20 -162 -54 -250t-98 -145q-69 -60 -183.5 -92.5t-256.5 -32.5q-246 0 -380 106.5t-134 301.5zM369 1409q0 78 53.5 132 t130.5 54q76 0 131 -54.5t55 -129.5q0 -79 -52.5 -133.5t-129.5 -54.5q-79 0 -133.5 54t-54.5 132zM834 1409q0 76 54.5 130t131.5 54q74 0 129 -54.5t55 -129.5q0 -78 -52.5 -132t-127.5 -54q-79 0 -134.5 54.5t-55.5 131.5z" />
<glyph unicode="&#xfd;" />
<glyph unicode="&#xfe;" />
<glyph unicode="&#xff;" horiz-adv-x="1388" d="M31 -567l397 647l-365 950h422l111 -278q34 -86 47 -129q21 -78 39 -166q16 39 31 65q6 13 49 90q42 76 55 93l199 325h432l-991 -1597h-426zM383 1399q0 76 54.5 130t131.5 54q75 0 130 -53.5t55 -128.5q0 -80 -52.5 -134.5t-130.5 -54.5t-133 54.5t-55 132.5zM848 1401 q0 75 54.5 128.5t131.5 53.5q75 0 130 -55t55 -129q0 -77 -53 -131t-128 -54q-78 0 -134 54.5t-56 132.5z" />
<glyph unicode="&#x152;" horiz-adv-x="2437" d="M125 748q0 180 65.5 336.5t180 268t276.5 175t348 63.5q284 0 527 -176l22 -16l-16 12l-6 4l12 121h842l-41 -338h-453l-31 -266h437l-39 -338h-439l-32 -256h471l-43 -338h-858l4 35q-174 -88 -396 -88q-240 0 -429.5 102t-295.5 284.5t-106 414.5zM522 758 q0 -192 122 -317.5t308 -125.5q192 0 319.5 130.5t127.5 328.5q0 195 -119 322t-301 127q-195 0 -326 -133.5t-131 -331.5z" />
<glyph unicode="&#x153;" horiz-adv-x="2078" d="M72 504q0 253 158.5 408t416.5 155q126 0 220.5 -36.5t183.5 -119.5q66 54 123 84q138 72 299 72q115 0 219.5 -36.5t171.5 -100.5q137 -128 137 -402q0 -47 -2 -82h-750q11 -110 60.5 -159t152.5 -49q114 0 164 77h350q-52 -108 -79.5 -150.5t-77.5 -88.5 q-119 -107 -346 -107q-170 0 -302 60q-52 24 -80.5 44.5t-70.5 65.5q-70 -63 -127 -96q-132 -74 -301 -74q-235 0 -377.5 146t-142.5 389zM459 487q0 -100 55.5 -158.5t149.5 -58.5q103 0 172 79t69 196q0 104 -54.5 162.5t-148.5 58.5q-104 0 -173.5 -80t-69.5 -199z M1288 662h391q-17 87 -61 125t-127 38t-135.5 -42t-67.5 -121z" />
<glyph unicode="&#x178;" horiz-adv-x="1273" d="M129 1536h432l105 -246l43 -102q24 -55 57 -158q12 29 22 43q1 3 31 49q20 30 23 33l264 381h473l-672 -864l-84 -672h-387l84 684zM465 1870q0 82 56 138t138 56q79 0 137 -57t58 -135q0 -84 -55.5 -141.5t-136.5 -57.5q-83 0 -140 57t-57 140zM952 1870q0 78 57.5 134 t139.5 56q78 0 135 -57t57 -135q0 -82 -55 -138.5t-133 -56.5q-84 0 -142.5 57t-58.5 140z" />
<glyph unicode="&#x2c6;" horiz-adv-x="1134" d="M338 1214l254 398h420l135 -398h-293l-84 197l-129 -197h-303z" />
<glyph unicode="&#x2dc;" horiz-adv-x="1140" d="M248 1221q2 13 5.5 31.5t4.5 25.5q28 151 84 217q73 86 190 86q86 0 213 -65q45 -24 66 -31.5t43 -7.5q43 0 62 25t24 85h242q-10 -100 -21.5 -146.5t-38.5 -99.5q-64 -127 -207 -127q-49 0 -90 15q-38 12 -157 71q-61 31 -90 31q-40 0 -58.5 -25t-21.5 -85h-250z" />
<glyph unicode="&#x2000;" horiz-adv-x="1055" />
<glyph unicode="&#x2001;" horiz-adv-x="2111" />
<glyph unicode="&#x2002;" horiz-adv-x="1055" />
<glyph unicode="&#x2003;" horiz-adv-x="2111" />
<glyph unicode="&#x2004;" horiz-adv-x="703" />
<glyph unicode="&#x2005;" horiz-adv-x="527" />
<glyph unicode="&#x2006;" horiz-adv-x="351" />
<glyph unicode="&#x2007;" horiz-adv-x="351" />
<glyph unicode="&#x2008;" horiz-adv-x="263" />
<glyph unicode="&#x2009;" horiz-adv-x="422" />
<glyph unicode="&#x200a;" horiz-adv-x="117" />
<glyph unicode="&#x2010;" horiz-adv-x="518" d="M0 348v273h518v-273h-518z" />
<glyph unicode="&#x2011;" horiz-adv-x="518" d="M0 348v273h518v-273h-518z" />
<glyph unicode="&#x2012;" horiz-adv-x="518" d="M0 348v273h518v-273h-518z" />
<glyph unicode="&#x2013;" horiz-adv-x="1249" d="M166 391v307h1091v-307h-1091z" />
<glyph unicode="&#x2014;" horiz-adv-x="2412" d="M260 606v471h1434v-471h-1434z" />
<glyph unicode="&#x2018;" horiz-adv-x="585" d="M104 883l125 653h252l-59 -653h-318z" />
<glyph unicode="&#x2019;" horiz-adv-x="583" d="M104 883l60 653h315l-121 -653h-254z" />
<glyph unicode="&#x201a;" horiz-adv-x="600" d="M63 391h351l-58 -682l-282 2z" />
<glyph unicode="&#x201c;" horiz-adv-x="1013" d="M104 1534l33 -653h252l31 653h-316zM594 1534l33 -653h254l30 653h-317z" />
<glyph unicode="&#x201d;" horiz-adv-x="1013" d="M104 1536h318l-45 -653h-252zM594 1536h315l-41 -653h-254z" />
<glyph unicode="&#x201e;" horiz-adv-x="804" d="M0 -268l41 653h254l20 -653h-315zM487 -268l45 653h252l21 -653h-318z" />
<glyph unicode="&#x2022;" horiz-adv-x="1527" d="M500 784q0 131 93 226.5t220 95.5q133 0 226.5 -94.5t93.5 -229.5q0 -132 -93 -226.5t-223 -94.5q-131 0 -224 95t-93 228z" />
<glyph unicode="&#x2026;" horiz-adv-x="1835" d="M131 193q0 101 70 171t170 70q98 0 167.5 -69.5t69.5 -167.5q0 -100 -69.5 -170t-169.5 -70q-97 0 -167.5 69.5t-70.5 166.5zM831 193q0 101 69 171t169 70q98 0 168 -69.5t70 -167.5q0 -100 -70 -170t-168 -70t-168 69.5t-70 166.5zM1530 193q0 101 68.5 171t168.5 70 q99 0 168.5 -69t69.5 -168q0 -100 -70 -170t-168 -70q-97 0 -167 69.5t-70 166.5z" />
<glyph unicode="&#x202f;" horiz-adv-x="422" />
<glyph unicode="&#x2039;" horiz-adv-x="679" d="M84 526l350 500l205 -141l-256 -359l262 -354l-211 -147z" />
<glyph unicode="&#x203a;" horiz-adv-x="679" d="M113 172l262 354l-256 359l203 141l350 -500l-350 -501z" />
<glyph unicode="&#x205f;" horiz-adv-x="527" />
<glyph unicode="&#x20ac;" horiz-adv-x="1556" d="M100 623v335h179q74 273 288.5 443t495.5 170q188 0 348 -78l-49 -406q-135 87 -277 87q-113 0 -216.5 -58.5t-153.5 -157.5h631l-41 -335h-615q38 -117 151.5 -183.5t243.5 -66.5q103 0 193 37l-51 -424q-90 -17 -162 -17q-134 0 -270.5 50t-248 135t-188.5 208.5 t-92 260.5h-166z" />
<glyph unicode="&#x2122;" horiz-adv-x="1710" d="M115 1319l26 217h656l-25 -217h-194l-82 -657h-265l82 657h-198zM735 662l291 874h254l76 -295q20 -79 35 -170l249 465h265l41 -874h-265l-16 466l-252 -466h-145l-86 335q-17 70 -29 148q-18 -72 -29 -107l-116 -376h-273z" />
<glyph unicode="&#x25fc;" horiz-adv-x="1034" d="M0 0v1034h1034v-1034h-1034z" />
<glyph unicode="&#xfb01;" horiz-adv-x="5179" d="M0 -508v2511h4465v-2511h-4465zM199 154q55 -40 89 -58t97 -43q172 -78 344 -78q184 0 329 73t212 196q22 50 36.5 128.5t14.5 151.5q0 89 -22 152t-74 121q-46 50 -108 82t-171 65q-29 11 -57 20.5t-49.5 16t-28.5 8.5q-70 23 -100 53q-35 30 -35 78q0 56 47.5 93.5 t120.5 37.5q134 0 258 -106l158 313q-227 121 -482 121q-232 0 -375 -141.5t-143 -368.5q0 -251 178 -344q71 -37 236 -84q97 -30 134.5 -47.5t68.5 -48.5q30 -27 30 -80q0 -69 -51.5 -110.5t-138.5 -41.5q-175 0 -352 160zM1431 12.5q2 -4.5 7 -4.5h395q3 0 8 4.5t6 10.5 l97 243q3 6 18 6h524q12 0 15 -6l90 -243q11 -15 20 -15h395q11 0 11 15l-572 1505q-3 10 -14 10h-408q-15 0 -18 -10l-573 -1505q-3 -6 -1 -10.5zM2062 588q0 -8 11 -8h305q9 0 6 8l-156 459q-2 9 -4 9t-2 -9zM3019 1200h321v-1192h398v1192h327v334h-1046v-334z" />
<glyph unicode="&#xfb02;" horiz-adv-x="5179" d="M0 -508v2511h4465v-2511h-4465zM199 154q55 -40 89 -58t97 -43q172 -78 344 -78q184 0 329 73t212 196q22 50 36.5 128.5t14.5 151.5q0 89 -22 152t-74 121q-46 50 -108 82t-171 65q-29 11 -57 20.5t-49.5 16t-28.5 8.5q-70 23 -100 53q-35 30 -35 78q0 56 47.5 93.5 t120.5 37.5q134 0 258 -106l158 313q-227 121 -482 121q-232 0 -375 -141.5t-143 -368.5q0 -251 178 -344q71 -37 236 -84q97 -30 134.5 -47.5t68.5 -48.5q30 -27 30 -80q0 -69 -51.5 -110.5t-138.5 -41.5q-175 0 -352 160zM1431 12.5q2 -4.5 7 -4.5h395q3 0 8 4.5t6 10.5 l97 243q3 6 18 6h524q12 0 15 -6l90 -243q11 -15 20 -15h395q11 0 11 15l-572 1505q-3 10 -14 10h-408q-15 0 -18 -10l-573 -1505q-3 -6 -1 -10.5zM2062 588q0 -8 11 -8h305q9 0 6 8l-156 459q-2 9 -4 9t-2 -9zM3019 1200h321v-1192h398v1192h327v334h-1046v-334z" />
</font>
</defs>
</svg>
